<?xml version="1.0" encoding="utf-8"?>
<!-- Generator: Adobe Illustrator 28.4.1, SVG Export Plug-In . SVG Version: 6.00 Build 0)  -->
<svg version="1.1" id="Layer_1" xmlns="http://www.w3.org/2000/svg" xmlns:xlink="http://www.w3.org/1999/xlink" x="0px" y="0px"
	 viewBox="0 0 4000 4000" style="enable-background:new 0 0 4000 4000;" xml:space="preserve">
<style type="text/css">
	.st0{fill:#252FAD;}
	.st1{opacity:0.2;}
	.st2{fill:#030074;}
	.st3{fill:#FF76C1;}
	.st4{opacity:0.5;}
	.st5{fill:#FFFFFF;}
	.st6{fill:#3B4875;}
	.st7{fill:#D8854C;}
	.st8{fill:#F2AEDD;}
	.st9{fill:#FCD7CF;}
	.st10{fill:#D83E40;}
	.st11{fill:#898199;}
	.st12{fill:#E2E4F9;}
	.st13{opacity:0.9;}
	.st14{fill:#78F5FF;}
	.st15{fill:#02B3FF;}
	.st16{fill:#FF6630;}
	.st17{fill:#FF2974;}
	.st18{fill:#9995FF;}
	.st19{fill:#FFA64F;}
	.st20{fill:#0098DC;}
</style>
<g>
	<g>
		<path class="st0" d="M1483.7,1890.7c0,0-12.2,190.4-52.6,270.6c0,0,92.1-43.8,132.6-90.2c0,0-4.6,132.1-18.3,191.1
			c0,0,180.6-93.2,212.6-135.7l31.3,115.1l96.1-63.5c0,0,173.7,119.9,177.2,109.3c3.5-10.6,95.7-126.1,95.7-126.1
			s87.6,83.8,89.4,73.2c1.8-10.6,28.3-95.1,29.1-93.4s131.2,69.6,131.2,69.6l-5.5-193.1l118.9,79.4l-52.4-206.3
			c0,0-422.1-59.3-613.6-73.8C1664,1802.5,1483.7,1890.7,1483.7,1890.7L1483.7,1890.7z"/>
		<g class="st1">
			<path class="st2" d="M1483.7,1890.7c0,0-12.2,190.4-52.6,270.6c0,0,92.1-43.8,132.6-90.2c0,0-4.6,132.1-18.3,191.1
				c0,0,180.6-93.2,212.6-135.7l31.3,115.1l96.1-63.5c0,0,173.7,119.9,177.2,109.3c3.5-10.6,95.7-126.1,95.7-126.1
				s87.6,83.8,89.4,73.2c1.8-10.6,28.3-95.1,29.1-93.4s131.2,69.6,131.2,69.6l-5.5-193.1l118.9,79.4l-52.4-206.3
				c0,0-422.1-59.3-613.6-73.8C1664,1802.5,1483.7,1890.7,1483.7,1890.7L1483.7,1890.7z"/>
		</g>
		<path class="st2" d="M2062.2,2303.4c-10.6,0-40-12.4-177.1-106.8l-87.4,57.8c-4.1,2.7-9.3,3.3-13.9,1.6c-4.6-1.7-8.1-5.6-9.4-10.3
			l-24.4-89.8c-55.4,46.1-181.3,111.7-197.5,120c-5.3,2.7-11.8,2.1-16.5-1.5s-6.9-9.8-5.5-15.6c8.8-37.6,13.8-107.3,16.1-150.4
			c-45.3,36.5-105.7,65.5-108.8,67c-5.9,2.8-13,1.6-17.6-3.1s-5.7-11.8-2.7-17.6c38.5-76.5,50.9-262.8,51-264.7
			c0.4-5.5,3.6-10.4,8.6-12.8c7.5-3.7,186.3-89.9,379.6-75.3c189.7,14.3,610.3,73.3,614.5,73.9c6.2,0.9,11.2,5.4,12.8,11.4
			l52.4,206.3c1.6,6.2-0.8,12.7-6,16.3c-5.2,3.7-12.1,3.8-17.4,0.2l-94.1-62.9l4.6,163.4c0.2,5.4-2.6,10.6-7.2,13.5
			c-4.6,2.9-10.4,3.1-15.2,0.6c-64.3-33.5-97.9-51-115.9-60.9c-7.8,23.8-21,66.7-22.2,73.6c-1,6-5.2,11-11,12.9
			c-8.8,2.9-16.4,5.4-92-65.9c-39.1,49.2-78.4,100.3-83,109.1c-1.8,4.5-5.4,7.9-10,9.5C2065.5,2303,2064.2,2303.5,2062.2,2303.4
			L2062.2,2303.4z M2077.1,2292.3c-0.1,0.2-0.1,0.4-0.2,0.5C2077,2292.6,2077,2292.4,2077.1,2292.3z M2049.5,2279.2
			c-0.6,1-1.2,2.1-1.6,3.3C2048.2,2281.7,2048.7,2280.6,2049.5,2279.2z M1885.3,2162.7c3.1,0,6.1,0.9,8.7,2.7
			c63.9,44.1,136.1,91.3,161.6,104.2c13.4-19.6,43.7-59.1,90.6-117.9c2.7-3.4,6.7-5.4,11-5.7c4.3-0.3,8.5,1.2,11.6,4.2
			c23.9,22.9,52.3,48.4,68.9,61.7c3.6-12.4,8-26.5,9.9-32.6c3.5-11.1,6.9-21.9,9.6-29.9c5.4-16.1,7.4-22.1,17.2-23.5
			c4.2-0.6,8.3,0.5,11.5,3c7.3,4.4,61.5,33,105.8,56.1l-4.8-166.9c-0.2-5.8,2.9-11.1,7.9-13.9c5-2.8,11.2-2.5,16,0.7l85.6,57.2
			l-40-157.5c-65.7-9.1-430.1-59.2-602.4-72.2c-162.6-12.3-319.4,52.3-355.9,68.6c-2.6,33.4-12.8,148.6-37.9,227.6
			c29.3-16.6,69.3-41.8,91.5-67.4c4.3-4.9,11.2-6.6,17.2-4.2c6.1,2.4,9.9,8.3,9.7,14.8c-0.2,4.6-3.5,97.5-12.9,162.2
			c59.8-32.2,158.8-89,179.5-116.6c3.5-4.7,9.4-7,15.2-5.9c5.8,1.1,10.4,5.4,11.9,11.1l25.7,94.6l78.4-51.8
			C1879.4,2163.6,1882.3,2162.7,1885.3,2162.7L1885.3,2162.7z M2290.5,2134.3C2290.5,2134.3,2290.5,2134.3,2290.5,2134.3
			C2290.6,2134.4,2290.6,2134.3,2290.5,2134.3z M2290.5,2134.3C2290.5,2134.3,2290.5,2134.3,2290.5,2134.3
			C2290.5,2134.3,2290.5,2134.3,2290.5,2134.3z M2290.5,2134.3C2290.5,2134.3,2290.5,2134.3,2290.5,2134.3
			C2290.5,2134.3,2290.5,2134.3,2290.5,2134.3z"/>
	</g>
	<g>
		<path class="st3" d="M2881.8,3003.9c0,0,25.8-89.5-39.5-327c-65.2-237.5-229.9-289.3-229.9-289.3H1452.7
			c0,0-164.6,51.8-229.8,289.3s-39.5,327-39.5,327s-41.2,87.9,29.2,305.6c70.4,217.8,154.3,389.9,333.8,295
			c0,0,210.6,57.9,486.1,57.9s486.1-57.9,486.1-57.9c179.6,94.8,263.4-77.3,333.9-295C2922.9,3091.8,2881.7,3003.9,2881.8,3003.9
			L2881.8,3003.9z"/>
		<g class="st1">
			<path class="st2" d="M1217.7,3324.5c-3-8.8-5.1-14.9-5.1-14.9S1214.2,3315.2,1217.7,3324.5z"/>
			<path class="st2" d="M2843.4,3324.5c3.5-9.3,5.1-14.9,5.1-14.9S2846.4,3315.7,2843.4,3324.5z"/>
			<path class="st2" d="M2630.4,3493.9c-161.4-11.7-2.7-341.9,55.3-433.2c58-91.3,87.8-123.2,87.8-123.2s-45.7-294.3-176.6-341.2
				c-127.9-45.8-547.2,245-566.4,258.4c-19.2-13.4-438.5-304.1-566.4-258.4c-130.9,46.8-176.6,341.2-176.6,341.2
				s29.8,31.8,87.8,123.2c58,91.3,216.8,421.5,55.3,433.2c-134.1,9.7-195.9-123.9-213-169.4c7.6,22.2,21.1,61.5,21.9,63.8
				c1.2,3.3,67.9,181.2,148.3,226.4c80.4,45.2,154.2-7.9,154.2-7.9l15.4,0.7c0,0,76.3,16.7,209.6,38
				c133.3,21.3,263.4,17.1,263.4,17.1s130.1,4.2,263.4-17.1c133.3-21.3,209.6-38,209.6-38l15.4-0.7c0,0,73.9,53.1,154.2,7.9
				c80.4-45.2,147.1-223.1,148.3-226.4c0.9-2.3,14.3-41.6,21.9-63.8C2826.3,3370,2764.5,3503.7,2630.4,3493.9L2630.4,3493.9z
				 M2030.5,3494.4c0,0-369.8-35.6-287.3-112.9c78.3-73.4,267.9-70.7,286.6-70.3v0c0,0,0.3,0,0.8,0c0.5,0,0.8,0,0.8,0v0
				c18.7-0.4,208.3-3.1,286.6,70.3C2400.3,3458.8,2030.5,3494.4,2030.5,3494.4L2030.5,3494.4z"/>
		</g>
		<g class="st4">
			<path class="st5" d="M1206.6,2965.3c0,0,27.5-287.1,95.3-400.4c67.8-113.3,145.1-170.3,145.1-170.3s-92.3,13.2-168.1,148.9
				c-75.8,135.6-89.5,283.4-89.5,283.4s-21.4,128.8-18,134.1s12,24.7,12,24.7l16.9-4.8L1206.6,2965.3L1206.6,2965.3z"/>
		</g>
		<g class="st4">
			<path class="st5" d="M1229.9,3129.4c-1.4,15.7-23.9,15.5-25.1-0.2c-2.8-36.9-2.8-75.3,5.3-96.2c18.1-46.9,49.3-68.7,59-45.7
				s-36.1,27.9-36.1,84.7C1233,3089,1231.7,3109.3,1229.9,3129.4L1229.9,3129.4z"/>
		</g>
		<g class="st4">
			<ellipse class="st5" cx="1230.4" cy="3184.1" rx="15.3" ry="19.2"/>
		</g>
		<g class="st4">
			<path class="st5" d="M2852.1,2965.3c0,0-27.5-287.1-95.3-400.4s-145.1-170.3-145.1-170.3s92.3,13.2,168.1,148.9
				c75.8,135.6,89.5,283.4,89.5,283.4s21.4,128.8,18,134.1s-12,24.7-12,24.7l-16.9-4.8L2852.1,2965.3L2852.1,2965.3z"/>
		</g>
		<g class="st4">
			<path class="st5" d="M2828.8,3129.4c1.4,15.7,23.9,15.5,25.1-0.2c2.8-36.9,2.8-75.3-5.3-96.2c-18.1-46.9-49.3-68.7-59-45.7
				s36.1,27.9,36.1,84.7C2825.7,3089,2827,3109.3,2828.8,3129.4z"/>
		</g>
		<g class="st4">
			<ellipse class="st5" cx="2828.2" cy="3184.1" rx="15.3" ry="19.2"/>
		</g>
		<path class="st2" d="M1170.2,2996.1c26.5-43.9,76.2-87.2,130.9-72.7c30.2,8.5,55.6,32.5,65.3,61.5c0.2,0.7-0.1,1.5-0.8,1.7
			c-29.9-18.1-56.8-47.7-93.2-38.6c-33,8.3-57.5,37.1-76.1,64.2C1185.2,3028.8,1160.4,3013.5,1170.2,2996.1L1170.2,2996.1
			L1170.2,2996.1z"/>
		<path class="st2" d="M1541,3590.2c54.5-35,50.8-135.3,41.1-192.9c-14.3-84.4-54.2-160.8-90.7-238c-0.7-1.2,1.2-2.6,2.1-1.5
			c28.3,30.2,50,65.6,68.5,102.5c36.7,74.4,62.8,158.2,54.3,242.3c-4.5,43.6-21.2,96.1-64.5,116.4
			C1532.7,3625.6,1522.2,3597.8,1541,3590.2L1541,3590.2L1541,3590.2z"/>
		<path class="st2" d="M2032.6,3677.9c-249.1,0-448.1-47.7-484.3-57c-55.7,28.1-106.8,33.1-151.8,14.8
			c-95.7-38.9-152-177.5-198.5-321.5c-62.8-194.2-38.6-288.9-30.6-311.6c-4.6-23.1-17-120,40.7-329.9
			c66.7-242.8,233-297.7,240.1-299.9c1.5-0.5,3.1-0.7,4.6-0.7h1159.7c1.6,0,3.1,0.2,4.6,0.7c7.1,2.2,173.4,57.1,240.1,299.9
			c57.7,209.9,45.3,306.9,40.7,329.9c8,22.7,32.2,117.4-30.6,311.6c-46.6,144-102.8,282.6-198.5,321.5c-45,18.3-96,13.3-151.8-14.8
			C2480.7,3630.2,2281.7,3677.9,2032.6,3677.9L2032.6,3677.9z M1546.4,3589.2c1.4,0,2.7,0.2,4.1,0.6c2.1,0.6,212,57.4,482.1,57.4
			s480-56.8,482.1-57.4c3.8-1,7.8-0.6,11.2,1.2c50.1,26.5,93,31.8,131.2,16.3c84.1-34.2,136.6-165.6,180.9-302.4
			c67.1-207.4,30.2-293.7,29.8-294.5c-1.5-3.3-1.8-7.1-0.8-10.6l0,0c0.2-0.9,23.3-90.2-39.5-318.8
			c-58.2-211.8-199.1-271.1-217.7-278H1455.4c-18.4,6.9-159.4,66.1-217.7,278c-62.8,228.6-39.8,317.9-39.5,318.8
			c1,3.5,0.7,7.4-0.9,10.7c-0.3,0.7-37.1,87.1,29.9,294.4c44.2,136.9,96.8,268.3,180.9,302.4c38.2,15.5,81.1,10.2,131.2-16.3
			C1541.5,3589.8,1543.9,3589.2,1546.4,3589.2L1546.4,3589.2z"/>
		<path class="st2" d="M2868.5,3011.7c-18.6-26.9-43-55.4-75.8-63.7c-35.5-8.5-63,18.7-91.9,38.4c-0.6,0.4-1.4,0.3-1.9-0.3
			c10.8-39.9,56.2-71.3,98.5-64.8c42.8,6.7,75.7,39.4,97.6,74.8C2904.9,3013.8,2879.3,3028.9,2868.5,3011.7L2868.5,3011.7
			L2868.5,3011.7z"/>
		<path class="st2" d="M2513.3,3619c-70.9-35.3-71.9-144.1-60.6-211.5c9.1-51.3,27.7-101.1,50.5-147.2
			c18.5-36.9,40.2-72.2,68.5-102.5c0.9-1,2.8,0.2,2.1,1.4c-35.7,75-73.8,149.2-89.6,230.7c-9.8,57.6-14.6,137.5,23,185.5
			c4.8,5.9,11,11.5,17,14.7C2542.9,3597.7,2532.5,3625.6,2513.3,3619L2513.3,3619z"/>
	</g>
	<g>
		<g>
			<path class="st6" d="M1516.3,2862.4c83.1,78.9,236,144.2,497,143.6c247-0.5,360.4-75.9,412.4-143.6
				C2065.4,2726.2,1516.3,2862.4,1516.3,2862.4z"/>
			<g>
				<g>
					<path class="st7" d="M1873,2067.2c-51.8,8.4-249.2,45.4-314.8,128.6c-75.8,96.1-130.5,370.3-127,493.7
						c1.5,51.8,25.1,115.9,85.1,173c0,0,195.2-48.4,429.2-58.6C1789,2481.9,1866,2099.3,1873,2067.2L1873,2067.2z"/>
					<path class="st8" d="M2182.2,2059.8c-54.7,10.7-179.2,29.3-296.6,5.4c0,0-4.6,0.6-12.6,1.9c-7,32.1-84,414.7,72.4,736.7
						c69.1-3,141.6-2.7,213.4,3.1C2227.2,2455.9,2186.4,2094.7,2182.2,2059.8L2182.2,2059.8z"/>
				</g>
				<path class="st7" d="M2797.8,1931.2c0,0-151-15.4-198.9-72.4c0,0-66.6,178.2-76.7,271c0,0-143.6-81-311.4-76.4
					c0,0-10.5,2.7-28.6,6.2c4.2,34.9,44.9,396.1-23.4,747.2c92.9,7.6,184.8,24.4,266.9,55.5c42.6-55.5,44.1-106,44.1-106
					s-33.5-172.8-28.2-313.9c0,0,184.3,82.9,292.3-45.9C2841.9,2268,2797.8,1931.2,2797.8,1931.2L2797.8,1931.2z"/>
			</g>
		</g>
		<path class="st9" d="M1885.6,2065.2c0,0,54.9,116.4,140.3,121.1c85.4,4.7,156-126.5,156-126.5S2031.4,2104.1,1885.6,2065.2
			L1885.6,2065.2z"/>
		<g>
			<path class="st2" d="M2158.9,2809.6c-0.3,0-0.6-0.1-0.9-0.1l0-0.1c-0.9-0.4-1.7-1.4-1.6-2.5c0.1-1.4,1.1-2.6,2.6-2.4
				c0,0,0.1,0,0.1,0c1.4,0,2.4,1.1,2.4,2.6S2160.4,2809.5,2158.9,2809.6L2158.9,2809.6L2158.9,2809.6z"/>
			<path class="st2" d="M1516.3,2865c-1.2,0-2.2-0.8-2.5-2c-0.3-1.4,0.5-2.8,1.9-3.1l1.3-0.3c1.4-0.3,2.8,0.5,3.1,1.9
				c0.3,1.4-0.5,2.8-1.9,3.1l-1.3,0.3C1516.7,2865,1516.5,2865,1516.3,2865L1516.3,2865z"/>
			<g class="st1">
				<path class="st2" d="M1431.2,2689.5c1.5,51.8,25.1,115.9,85.1,173c0,0,0.4-0.1,1.3-0.3c-0.8,0.2-1.3,0.3-1.3,0.3
					c83.1,78.9,236,144.2,497,143.6c247-0.5,360.4-75.9,412.4-143.6c-5.4-2-10.8-4-16.3-5.9c5.5,1.9,10.9,3.9,16.3,5.9
					c42.6-55.5,44.1-106,44.1-106s-33.5-172.8-28.2-313.9c0,0,184.3,82.9,292.3-45.9c57.4-68.4,71.8-195.6,72.8-299.7l0,0
					c0,0-22.5,194.1-149.9,273.3s-222.2-3.5-254.3,16.7c-32.1,20.2-19.1,179.1-94.9,177.3c-75.8-1.8-116.4-171-116.4-171l-0.3,169
					c0,0,9.2,104.3-71.9,120.2s-254.1-122-254.1-122s-15.7-35-45.7-31.4c-30,3.5-127,121.7-249,158.7c-122,37-138.8-24.6-138.8-24.7
					C1431,2672.4,1431,2681.3,1431.2,2689.5L1431.2,2689.5z M2403.7,2854.6c-3.6-1.2-7.2-2.4-10.8-3.6
					C2396.5,2852.1,2400.1,2853.4,2403.7,2854.6z M2385.8,2848.8c-3.2-1-6.4-2-9.6-3C2379.5,2846.7,2382.6,2847.8,2385.8,2848.8z
					 M2368.4,2843.5c-3-0.9-6-1.7-9-2.6C2362.4,2841.8,2365.4,2842.6,2368.4,2843.5z M2350.9,2838.6c-2.8-0.7-5.6-1.5-8.4-2.2
					C2345.3,2837.2,2348.1,2837.9,2350.9,2838.6z M2333.4,2834.2c-2.6-0.6-5.2-1.2-7.8-1.9
					C2328.2,2832.9,2330.8,2833.5,2333.4,2834.2z M2315.7,2830.1c-2.4-0.5-4.7-1-7.1-1.5C2311,2829,2313.4,2829.5,2315.7,2830.1z
					 M2298,2826.3c-1.9-0.4-3.9-0.8-5.8-1.2C2294.1,2825.5,2296,2825.9,2298,2826.3z M2280.1,2822.8c-1.1-0.2-2.2-0.4-3.3-0.6
					C2277.9,2822.4,2279,2822.6,2280.1,2822.8z M2158.8,2807C2158.8,2807,2158.9,2807,2158.8,2807
					C2158.9,2807,2158.8,2807,2158.8,2807C2158.8,2807,2158.8,2807,2158.8,2807L2158.8,2807z M1521.7,2861.2
					c-0.4,0.1-0.7,0.2-1.1,0.2C1520.9,2861.3,1521.3,2861.2,1521.7,2861.2z M1519.2,2861.8c-0.3,0.1-0.7,0.2-1,0.2
					C1518.5,2861.9,1518.8,2861.8,1519.2,2861.8z"/>
			</g>
		</g>
		<g class="st1">
			<path class="st2" d="M1857.2,2161.4c0,0,44.9,59.9,76.6,61.7c31.7,1.8,64-42.4,64-42.4l18.4,11.6c0,0-45.4,71.7-79.5,69.9
				s-79.5-56.2-79.5-60.6c0-4.4-1.9-21.1-1.7-22.9C1855.6,2177,1857.2,2161.4,1857.2,2161.4L1857.2,2161.4z"/>
		</g>
		<g class="st1">
			<path class="st2" d="M2048.6,2186.4c0,0,29.6,48.1,70.2,37.5c40.6-10.6,63-82.9,63-82.9s-1.6,68.3-30.2,104.4
				c-28.7,36.1-63.8,27.9-91.8-7.7c-28-35.6-27.6-42.6-27.6-42.6L2048.6,2186.4L2048.6,2186.4z"/>
		</g>
		<g class="st4">
			<path class="st5" d="M1433,2656.6c0,0,90.5-405.3,176.3-470.1c74.6-45.4,252.8-89.4,252.8-89.4s7.1-16.1,7.1-18.3
				s-2.9-7.6-2.9-7.6s-117,12.4-215.1,59.1c-98.2,46.7-111.7,92-139.9,151.3C1482.9,2340.9,1423,2575.4,1433,2656.6z"/>
		</g>
		<g class="st4">
			<path class="st5" d="M2184.6,2083.6c0,0,172.4-12.3,331.1,71.5c0,0,6.5,2.7,5.7,6.2c-0.9,3.5,0.2,49.9,0.2,49.9l105.2-327.7
				l-29.1-21.4c0,0-38.8,96.3-56.1,174.5s-22.3,89.8-26.7,89.8s-41.2-28.1-153.6-56.4c-112.4-28.3-163.1-16.6-163.1-16.6l-16.2,15.3
				L2184.6,2083.6L2184.6,2083.6z"/>
		</g>
		<path class="st2" d="M2030.4,2201.8c-1.8,0-3.5-0.1-5.3-0.1c-93.4-5.1-150.9-124.8-153.3-129.9c-2.6-5.4-1.7-11.8,2.1-16.4
			c3.8-4.6,10-6.5,15.8-5c139.8,37.2,286.5-4.8,288-5.3c5.9-1.7,12.4,0.2,16.3,5.1s4.5,11.5,1.6,17
			C2192.4,2072.8,2121.8,2201.8,2030.4,2201.8L2030.4,2201.8z M1916.4,2087.9c21.1,32.4,60.6,80.4,110.4,83.1
			c50.4,2.8,96.9-51.5,122.1-87.5C2100.1,2093.2,2010.2,2105.3,1916.4,2087.9L1916.4,2087.9z"/>
		<path class="st2" d="M2009.9,3021.4c-202,0-358.1-38.5-463.9-114.5c-114.2-82.1-129.1-179.1-130.2-217
			c-3.7-129,53.2-406,130.3-503.7c78.8-99.8,326.9-134.8,337.4-136.2c1.7-0.2,3.4-0.2,5.1,0.2c151,30.7,316.7-11.1,318.4-11.5
			c1.1-0.3,2.2-0.4,3.4-0.5c135.4-3.8,254,46,299.6,68.1c16.3-96.5,71.9-246.1,74.5-252.8c1.9-5.1,6.4-8.8,11.8-9.8
			c5.4-0.9,10.9,1.1,14.4,5.2c36,42.8,148.4,62.8,188.7,67c7.1,0.7,12.8,6.2,13.7,13.3c1.8,14,43.7,345-67.4,477.4
			c-91.8,109.4-235.5,75.7-289.2,57.9c-1.4,133.3,28.1,287.4,28.4,289c0.2,1.1,0.3,2.2,0.3,3.4c-0.1,2.8-2.6,68.7-63.8,134.5
			c-79.9,85.9-217.2,129.6-408.1,130C2012.2,3021.4,2011.1,3021.4,2009.9,3021.4L2009.9,3021.4z M1885.2,2080.8
			c-26.1,3.9-247.8,39.2-315,124.4c-72,91.2-127.1,362-123.7,483.8c0.9,33.3,14.3,118.9,117.4,192.9
			c99.1,71.2,253.3,108.8,446.1,108.8h3.1c225-0.5,333-64.7,384-118.6c49.6-52.3,56.3-105.3,57.1-114.7
			c-3.9-20.5-33.2-180.6-28.1-315.4c0.2-5.1,2.9-9.8,7.2-12.5c4.4-2.7,9.8-3.1,14.4-1c1.7,0.8,175.1,76.4,274.2-41.7
			c91.3-108.9,68.2-381.8,61.8-441.9c-33.7-4.5-127-20.2-178.5-59.1c-17.8,50-60.2,174.6-67.9,245.7c-0.6,5.1-3.7,9.6-8.2,12
			c-4.6,2.4-10.1,2.3-14.6-0.3c-1.4-0.8-141-78.2-301.7-74.4C2193.7,2073.7,2035.8,2110.6,1885.2,2080.8L1885.2,2080.8z"/>
		<path class="st2" d="M1942,2816c-5.7,0-11.2-3.2-13.8-8.6c-86.4-176.7-100.6-369.6-97.3-500.2c3.6-141.3,27.1-239.7,28.1-243.8
			c2-8.2,10.3-13.3,18.6-11.3c8.2,2,13.3,10.3,11.3,18.6c-0.9,3.9-93.2,395.6,67,723.2c3.7,7.6,0.6,16.8-7.1,20.6
			C1946.6,2815.6,1944.3,2816.1,1942,2816L1942,2816z"/>
		<path class="st2" d="M2425.7,2877.8c-1.8,0-3.6-0.3-5.4-1c-351.6-132.9-894.9-0.8-900.3,0.5c-8.2,2.1-16.6-3-18.6-11.2
			c-2-8.2,3-16.6,11.2-18.6c1.4-0.3,140.5-34.5,321.9-51.5c168-15.7,407.8-19.4,596.7,52c7.9,3,11.9,11.9,8.9,19.8
			C2437.8,2874,2431.9,2877.8,2425.7,2877.8L2425.7,2877.8z"/>
		<path class="st2" d="M2158.2,2822.3c-1,0-2-0.1-3-0.3c-8.3-1.6-13.8-9.7-12.1-18c71.5-363.6,24-738.4,23.5-742.1
			c-1.1-8.4,4.8-16.1,13.2-17.2c8.4-1.1,16.1,4.8,17.2,13.2c0.5,3.8,48.6,383.4-23.8,752C2171.9,2817.2,2165.4,2822.3,2158.2,2822.3
			L2158.2,2822.3z"/>
		<path class="st2" d="M1849.3,2525.9c-75.9-38.6-170.4-27.3-239.7,20.5c-33.5,22.2-61.4,49.6-92.4,76.9c-1,0.9-2.7-0.4-2-1.6
			c16.6-33.6,42.1-62.4,71.1-86.3c77.5-65.1,187.5-84.8,278.6-35.9C1882.3,2510.2,1867.2,2535.9,1849.3,2525.9L1849.3,2525.9
			L1849.3,2525.9z"/>
		<path class="st2" d="M2537.4,2132c-0.8,14.4-2,29.9-3.4,44.2c-2.2,15-0.5,33-10.5,46.5c-0.6,0.9-1.9,0.9-2.6,0.2
			c-6.8-7.4-9.3-15.1-10.6-22.9c-3.5-19.6-5.8-39.5-4.7-59.5c0.2-4.2,0.6-7.9,1.4-12.7c1.4-8.4,9.4-14,17.8-12.6
			C2532.8,2116.6,2538.2,2124,2537.4,2132L2537.4,2132L2537.4,2132z"/>
		<path class="st2" d="M2114.1,2282.9c-0.8,0-1.6,0-2.3-0.1c-45.4-2-75.9-47.7-89.5-73.5c-25.3,30.8-69.3,76.7-101.2,68.3
			c-35.2-9.3-72.9-65.7-80.1-77c-4.6-7.1-2.5-16.6,4.6-21.2s16.7-2.5,21.2,4.6c15.3,23.7,44.6,59.2,62.1,63.9
			c10.8,2.8,49.6-31.5,79.7-70.8c2.9-3.8,7.4-6,12.2-6h7.6c6.3,0,12,3.9,14.3,9.7c7.7,19.3,35.4,69.7,70.4,71.3c0.3,0,0.6,0,0.9,0
			c29.8,0,54.5-67.3,61.8-100.3c1.8-8.3,10.1-13.5,18.3-11.7c8.3,1.8,13.5,10.1,11.7,18.3C2203,2171.3,2176.4,2282.8,2114.1,2282.9
			L2114.1,2282.9z"/>
		<g class="st1">
			<path class="st2" d="M2178.2,2087.3c0,0-46.4,51.1-145.8,53.8c-99.5,2.6-151.5-69.9-151.5-69.9l13-11.2c0,0,70.1,25,149.2,18.8
				c79.1-6.2,127-18.9,127-18.9S2178.3,2061.7,2178.2,2087.3L2178.2,2087.3z"/>
		</g>
	</g>
	<g>
		<path class="st9" d="M1565.2,1886.3c0,0-123.4,28-152.5-56.5s3-155.6,79.3-171S1565.2,1886.3,1565.2,1886.3z"/>
		<g class="st1">
			<path class="st2" d="M1412.7,1781.6c-4.1-11.8-6.9-23.4-8.6-34.6c-4.3,24.7-1.7,52.9,8.6,82.8c29.1,84.6,152.5,56.5,152.5,56.5
				s0.3-19.9-1.2-47.9C1551.8,1840.9,1440.2,1861.4,1412.7,1781.6L1412.7,1781.6z"/>
		</g>
		<path class="st2" d="M1521.6,1906.3c-47.6,0-104.1-15.3-123.4-71.5c-17-49.4-15-96.4,5.6-132.3c17.6-30.7,47.1-51,85.3-58.7
			c14.6-2.9,28.5,0.6,40.2,10.3c52.4,43.4,51.7,213.2,51.4,232.4c-0.1,7.1-5,13.2-12,14.8
			C1555.8,1904.2,1539.3,1906.3,1521.6,1906.3L1521.6,1906.3z M1565.2,1886.3L1565.2,1886.3L1565.2,1886.3z M1498.8,1673.5
			c-1.2,0-2.4,0.1-3.7,0.4c-29.2,5.9-51.6,21.1-64.7,43.8c-16.1,28.1-17.3,66.2-3.2,107.1c19.4,56.4,93.5,52.4,122.7,48.5
			c-0.5-67.9-11.2-171.4-40.3-195.6C1506.1,1674.8,1502.7,1673.5,1498.8,1673.5L1498.8,1673.5z"/>
		<path class="st2" d="M1548.5,1832.9c-10-34.3-27-75.5-64.6-85.7c-11.8-3.1-24.7-3.5-40.1-5.3c-6.4-2.5,16.9-13.5,19.7-13.6
			c59.6-15.5,105.1,46.1,115.1,98.4C1582.2,1846.6,1553.2,1852.5,1548.5,1832.9L1548.5,1832.9L1548.5,1832.9z"/>
	</g>
	<g>
		<ellipse class="st9" cx="2023.7" cy="1679.4" rx="535" ry="399.2"/>
		<g class="st1">
			<path class="st2" d="M2023.7,1997.9c-277.2,0-505.2-157.3-532.3-358.8c-1.8,13.3-2.7,26.8-2.7,40.4
				c0,220.5,239.5,399.2,535,399.2s535-178.7,535-399.2c0-13.6-0.9-27.1-2.7-40.4C2528.9,1840.6,2300.9,1997.9,2023.7,1997.9
				L2023.7,1997.9z"/>
		</g>
		<path class="st2" d="M2023.7,1739.5c-65,0-142.8-7.9-142.8-7.9c-0.4,57.8,20.9,94,47.2,116.7c52.2,45,139,45,191.2,0
			c26.3-22.7,47.6-58.9,47.2-116.7C2166.5,1731.6,2088.7,1739.5,2023.7,1739.5L2023.7,1739.5z"/>
		<path class="st5" d="M2158.2,1735.1c-151.3,77.1-272.9-0.5-272.9-0.5l12.6-3.1c0,0,121.1-43.7,257.7,0L2158.2,1735.1z"/>
		<path class="st10" d="M2125.4,1842.6c-101.1-57.6-203.5,0-203.5,0s32.5,39.2,102.1,39.5
			C2093.7,1882.3,2125.4,1842.6,2125.4,1842.6L2125.4,1842.6z"/>
		<path class="st2" d="M2023.7,2094.1c-303.5,0-550.4-186-550.4-414.6s246.9-414.6,550.4-414.6s550.4,186,550.4,414.6
			S2327.2,2094.1,2023.7,2094.1z M2023.7,1295.6c-286.5,0-519.7,172.2-519.7,383.9s233.1,383.9,519.7,383.9s519.7-172.2,519.7-383.9
			S2310.2,1295.6,2023.7,1295.6L2023.7,1295.6z"/>
		<path class="st2" d="M2023.7,1897.6c-38.3,0-76.5-12.6-105.6-37.7c-35.3-30.4-52.9-73.6-52.6-128.4c0-6.7,4.4-12.6,10.8-14.6
			c3.3-1,81.1-25,147.7-25c66.6,0,143.8,24,147.1,25c6.4,2,10.7,7.9,10.8,14.6c0.4,54.8-17.3,98.1-52.6,128.4
			C2100.2,1885,2061.9,1897.6,2023.7,1897.6L2023.7,1897.6z M1896.5,1743.1c1.9,39.9,15.9,71.4,41.7,93.6c46.4,40,124.8,40,171.1,0
			c25.7-22.2,39.7-53.6,41.7-93.6c-23.2-6.4-79.1-20.4-126.9-20.4S1919.8,1736.6,1896.5,1743.1L1896.5,1743.1z"/>
		<path class="st2" d="M2013.8,1781.4c-83.7,0-133.8-31.8-136.9-33.9c-7.1-4.7-9.1-14.2-4.4-21.3c4.6-7.1,14.2-9.1,21.2-4.5l0,0
			c4.3,2.8,106.1,66.4,266.7-4.2c7.8-3.4,16.8,0.1,20.2,7.9c3.4,7.8-0.1,16.8-7.9,20.3C2111.6,1772.5,2058,1781.4,2013.8,1781.4
			L2013.8,1781.4z"/>
		<path class="st2" d="M2125.4,1857.9c-2.6,0-5.2-0.7-7.6-2c-92.1-52.4-187.5-0.5-188.4,0.1c-7.4,4.1-16.8,1.5-20.9-5.9
			s-1.5-16.7,5.9-20.9c4.5-2.5,111.2-61.2,218.7,0c7.4,4.2,9.9,13.6,5.8,21C2136,1855.1,2130.8,1857.9,2125.4,1857.9L2125.4,1857.9z
			"/>
	</g>
	<ellipse class="st9" cx="2091.6" cy="1309.3" rx="387.1" ry="123.4"/>
	<g class="st1">
		<ellipse class="st2" cx="2091.6" cy="1309.3" rx="387.1" ry="123.4"/>
	</g>
	<g>
		<path class="st5" d="M2588.4,1527.1c-4.7-26.9-33.9-49.8-66.1-49.8c0,0-7.6-87.2-80.2-90.7h-836.7c-72.6,3.5-80.2,90.7-80.2,90.7
			c-32.2,0-61.5,22.8-66.2,49.8c-4.7,26.9,10.5,155.1,19.3,183.9c8.8,28.8,41.6,49.1,41.6,49.1c19.3-41,58.5-61.4,58.5-61.4h112.4
			c36.9,0,43.6-19.9,43.6-19.9c18.9-33.4,55.8-31.6,55.8-31.6h467c0,0,36.9-1.8,55.8,31.6c0,0,6.7,19.9,43.6,19.9H2469
			c0,0,39.2,20.4,58.5,61.4c0,0,32.8-20.3,41.6-49.1S2593.1,1554.1,2588.4,1527.1L2588.4,1527.1z"/>
		<g class="st4">
			<path class="st5" d="M1525.1,1512.4c0,0,7.6-87.2,80.2-90.7H2442c72.6,3.5,80.2,90.7,80.2,90.7c32.2,0,61.5,22.8,66.1,49.8
				c0.1,0.4,0.1,0.9,0.2,1.3c0.9-16.4,1-29.6-0.2-36.3c-4.7-26.9-33.9-49.8-66.1-49.8c0,0-7.6-87.2-80.2-90.7h-836.7
				c-72.6,3.5-80.2,90.7-80.2,90.7c-32.2,0-61.5,22.8-66.2,49.8c-1.2,6.8-1.1,19.9-0.2,36.3c0.1-0.4,0.1-0.9,0.2-1.3
				C1463.7,1535.2,1492.9,1512.4,1525.1,1512.4L1525.1,1512.4z"/>
		</g>
		<g class="st1">
			<path class="st2" d="M2587.1,1522c-3.9,47.7-12.4,108.8-18.1,127.6c-8.8,28.8-41.6,49.1-41.6,49.1c-19.3-41-58.5-61.4-58.5-61.4
				h-112.4c-36.9,0-43.6-19.9-43.6-19.9c-18.9-33.4-55.8-31.6-55.8-31.6h-467c0,0-36.9-1.8-55.8,31.6c0,0-6.7,19.9-43.6,19.9h-112.4
				c0,0-39.2,20.4-58.5,61.4c0,0-32.8-20.3-41.6-49.1c-5.7-18.8-14.2-79.9-18.1-127.6c-0.5,1.7-0.9,3.4-1.2,5.2
				c-4.7,26.9,10.5,155.1,19.3,183.9c8.8,28.8,41.6,49.1,41.6,49.1c19.3-41,58.5-61.4,58.5-61.4h112.4c36.9,0,43.6-19.9,43.6-19.9
				c18.9-33.4,55.8-31.6,55.8-31.6h467c0,0,36.9-1.8,55.8,31.6c0,0,6.7,19.9,43.6,19.9h112.4c0,0,39.2,20.4,58.5,61.4
				c0,0,32.8-20.3,41.6-49.1s24-156.9,19.3-183.9C2588.1,1525.4,2587.6,1523.7,2587.1,1522z"/>
		</g>
		<path class="st2" d="M1578.4,1714c-0.8,0-1.6-0.1-2.5-0.2c-25.5-4.1-47.6-32.2-56.4-71.5c-7.9-35.1-9.7-159.4-9.7-164.7
			c-0.1-8.5,6.7-15.5,15.2-15.6c0.1,0,0.1,0,0.2,0c8.4,0,15.2,6.7,15.4,15.2c0.5,35.1,3,131.8,9,158.4c6.5,28.9,21,46.2,31.3,47.9
			c8.4,1.3,14.1,9.2,12.7,17.6C1592.3,1708.6,1585.8,1714,1578.4,1714L1578.4,1714z"/>
		<path class="st2" d="M2527.5,1775.4c-1.5,0-2.9-0.2-4.4-0.6c-4.2-1.2-7.7-4.2-9.5-8.2c-14-29.7-39.9-47.3-48.7-52.6h-108.3
			c-41.2,0-54.2-21.4-57.4-28.4c-14.2-24.1-41-23.1-41.2-23.1c-0.2,0-0.5,0-0.7,0h-467c-0.2,0-0.5,0-0.7,0c-1,0-27.3-0.6-41.2,23.1
			c-3.2,7-16.2,28.4-57.4,28.4h-108.3c-8.8,5.4-34.9,23.2-48.8,52.6c-1.9,4-5.3,6.9-9.5,8.2c-4.2,1.2-8.7,0.6-12.5-1.7
			c-1.5-0.9-37.8-23.8-48.2-57.7c-9.1-29.8-25.1-160.4-19.8-191c5.4-31,34-56.1,67.8-61.4c7.1-36.2,32.6-88.8,92.9-91.8
			c0.2,0,0.5,0,0.7,0H2442c0.2,0,0.5,0,0.7,0c60.3,2.9,85.8,55.6,92.9,91.8c33.9,5.3,62.5,30.4,67.9,61.4
			c5.3,30.6-10.7,161.2-19.8,191c-10.4,33.9-46.6,56.7-48.2,57.7C2533.1,1774.7,2530.3,1775.4,2527.5,1775.4L2527.5,1775.4z
			 M2327.4,1673.4c1.1,1.8,7.3,9.9,29.1,9.9h112.4c2.5,0,4.9,0.6,7.1,1.7c1.6,0.8,33.8,17.9,56.2,52.1c8.7-7.8,18.5-18.8,22.1-30.6
			c8.6-28.1,23-152.9,18.9-176.8l0,0c-3.5-20.1-26.9-37-51-37c-8,0-14.6-6.1-15.3-14c-0.3-3-7.5-73.6-65.3-76.7h-835.9
			c-57.8,3.1-65,73.7-65.3,76.7c-0.7,7.9-7.4,14-15.3,14c-24.2,0-47.5,16.9-51,37c-4.2,23.8,10.3,148.7,18.9,176.8
			c3.8,12.3,13.8,23.3,22.2,30.6c22.4-34.2,54.6-51.3,56.2-52.1c2.2-1.1,4.6-1.7,7.1-1.7h112.4c21.8,0,28-8,29.1-9.9
			c0.3-1.1,0.4-1,1.1-2.2c22.2-39.3,64-39.6,69.4-39.4h466.6c5.3-0.2,47.1,0.1,69.4,39.4C2327,1672.4,2327.1,1672.3,2327.4,1673.4
			L2327.4,1673.4z"/>
		<path class="st2" d="M2468.9,1714c-7.4,0-13.9-5.4-15.1-12.9c-1.4-8.4,4.4-16.3,12.7-17.6c10.4-1.7,24.9-19,31.4-47.9
			c6-26.6,8.5-123.4,9-158.4c0.1-8.4,7-15.2,15.4-15.2c0.1,0,0.1,0,0.2,0c8.5,0.1,15.3,7.1,15.2,15.6c-0.1,5.3-1.9,129.6-9.7,164.7
			c-8.8,39.3-31,67.4-56.4,71.5C2470.6,1713.9,2469.7,1714,2468.9,1714L2468.9,1714z"/>
	</g>
	<g>
		<path class="st11" d="M1625,1318.7h787.8c12.8,0,23.2,10.4,23.2,23.2v239.9c0,12.8-10.4,23.2-23.2,23.2H1625
			c-12.8,0-23.2-10.4-23.2-23.2v-239.9C1601.8,1329.1,1612.2,1318.7,1625,1318.7z"/>
		<g class="st4">
			<path class="st5" d="M2333.2,1318.7h-628.7c-56.7,0-102.7,39.6-102.7,88.4v31c0-48.8,46-88.4,102.7-88.4h628.7
				c56.7,0,102.7,39.6,102.7,88.4v-31C2436,1358.3,2390,1318.7,2333.2,1318.7z"/>
		</g>
		<g class="st1">
			<path class="st2" d="M2333.2,1555.8h-628.7c-56.7,0-102.7-46-102.7-102.7v49.2c0,56.7,46,102.7,102.7,102.7h628.7
				c56.7,0,102.7-46,102.7-102.7v-49.2C2436,1509.8,2390,1555.8,2333.2,1555.8z"/>
		</g>
		<path class="st2" d="M2320,1620.3h-602.1c-72.4,0-131.4-58.9-131.4-131.4v-54.2c0-72.4,58.9-131.4,131.4-131.4H2320
			c72.4,0,131.4,58.9,131.4,131.4v54.2C2451.3,1561.4,2392.4,1620.3,2320,1620.3L2320,1620.3z M1717.8,1334.1
			c-55.5,0-100.6,45.2-100.6,100.6v54.2c0,55.5,45.2,100.6,100.6,100.6H2320c55.5,0,100.6-45.2,100.6-100.6v-54.2
			c0-55.5-45.1-100.6-100.6-100.6H1717.8z"/>
		<g class="st4">
			<path class="st5" d="M1694.4,1377.3h268c2.6,0,4.8,2.1,4.8,4.8v38.5c0,2.6-2.1,4.8-4.8,4.8h-268c-2.6,0-4.8-2.1-4.8-4.8V1382
				C1689.6,1379.4,1691.8,1377.3,1694.4,1377.3z"/>
		</g>
		<g class="st4">
			<path class="st5" d="M2007.6,1377.3h73.6c2.6,0,4.8,2.1,4.8,4.8v38.5c0,2.6-2.1,4.8-4.8,4.8h-73.6c-2.6,0-4.8-2.1-4.8-4.8V1382
				C2002.8,1379.4,2004.9,1377.3,2007.6,1377.3z"/>
		</g>
	</g>
	<g>
		<g>
			<path class="st12" d="M2091.6,2975.3l-93.8,25l0,0c0,0-50.7,9.9-71.8,8.7c-21.1-1.2-141.4-26.8-187.4,47.9
				c-46,74.6-5.8,154.6-5.8,154.6l0,0c98,159.5,353,53.8,353,53.8s64.3-23.2,122.4-77.6C2208.2,3187.7,2082,3157.1,2091.6,2975.3
				L2091.6,2975.3z"/>
			<path class="st6" d="M1738.6,3056.9c46-74.6,166.3-49.1,187.4-47.9c21.1,1.2,71.8-8.7,71.8-8.7l0,0c0,0-107.8-107.5-269.2-213.2
				c-161.4-105.7-413.2-66.9-348.1,163.8s352.3,260.6,352.3,260.6l0,0C1732.8,3211.5,1692.6,3131.5,1738.6,3056.9L1738.6,3056.9z"/>
			<path class="st6" d="M2551.8,2734.2c-177.6,25.7-460.1,241.1-460.1,241.1c-9.6,181.8,116.6,212.4,116.6,212.4
				c-58.1,54.4-122.4,77.6-122.4,77.6s84.2,54.6,190.8,45.9c106.6-8.8,151.5-95.1,151.5-95.1s179.1-23.9,264.8-152.1
				C2778.5,2935.9,2729.4,2708.4,2551.8,2734.2L2551.8,2734.2z"/>
		</g>
		<path class="st12" d="M2428.1,3216.1c0,0,15.1-44.1-25.6-72.4c0,0-81.8,43.1-194.3,44.1c0,0-14.8,12.8-51.6,36.6
			s-58.5,40.6-58.5,40.6l5.5,7.2c0,0,97.3,61,193.2,36.6S2428.1,3216.1,2428.1,3216.1L2428.1,3216.1z"/>
		<g class="st1">
			<path class="st2" d="M1465.5,2745.2c0,0-55.3,58,11.1,161.2c66.4,103.2,238.6,188.4,238.6,188.4l3,65.5l3.1,17.2
				c0,0-224.8-24.3-324.1-181C1363.1,2927.4,1336.8,2787.9,1465.5,2745.2L1465.5,2745.2z"/>
		</g>
		<g class="st1">
			<path class="st2" d="M1744.8,3049.3c0,0-46.9,112.2,75.4,168.8c122.4,56.6,273.1-17.8,328.6-65.9c0,0-26.9-26.4-43.1-67
				s-15.9-88.5-15.9-88.5s2.6-14,3.9-15.9c1.3-1.9,8.8-12.7,8.8-12.7l23.7-15c0,0-28.9,60.9,30.2,127.4s267.5,13.8,402.6-78.9
				c135.1-92.6,112.4-200.9,112.4-200.9s75.6,88.1,49.4,180.3c-26.2,92.2-73,178.3-264.1,229.5l-20.7,2.6c0,0-4.2-6.9-5.9-7.9
				s-8.6-17.1-8.6-17.1s-120.6,30.9-175.3,40.5c-54.8,9.6-125.7,53-125.7,53s-22.2-7.9-22.4-12.2c-0.1-4.3-19.4-3.7-19.4-3.7
				s-82.5,41.9-198.6,35.3C1764,3294.3,1670.4,3183.3,1744.8,3049.3L1744.8,3049.3z"/>
		</g>
		<g class="st4">
			<path class="st5" d="M1452.7,2754.9c0,0,97.9-16.3,205.6,31.4s305.1,219.8,305.1,219.8l23.5-6.2l-0.3-10.2
				c0,0-113.8-102.3-225.2-180.8C1650.1,2730.4,1515.6,2716,1452.7,2754.9L1452.7,2754.9z"/>
		</g>
		<g class="st4">
			<path class="st5" d="M2090.3,3010.4c0,0,208.5-151.6,369.3-219.3s214-24.2,214-24.2s-40.3-71.1-228.4-1.7
				c-188.1,69.3-358.6,222.2-358.6,222.2L2090.3,3010.4L2090.3,3010.4z"/>
		</g>
		<g class="st4">
			<path class="st5" d="M1716.8,3098.8c0,0,55.7-62,116-63.9s79.8,4.9,125.7,3.5c45.9-1.4,128.7-29.8,128.7-29.8l-0.7-24l-12.9-6.4
				c0,0-98.1,33.4-136.1,30.5c-38-2.9-112.9-13.9-163.5,16.7C1723.4,3056.1,1716.8,3098.8,1716.8,3098.8L1716.8,3098.8z"/>
		</g>
		<path class="st2" d="M2253,3327.5c-82.5,0-147.7-33.1-168.6-45.1c-23,8.7-94.4,33.1-171.1,33.1c-69.4,0-143.3-20-189.5-89.6
			c-20.8-2.9-81.8-13.6-149.1-44.2c-108.9-49.5-181.1-127.8-209-226.6c-24.9-88.2-7.1-159.8,50.1-201.7
			c77.8-57.1,215.9-48.1,321.2,20.9c138.8,90.9,239.5,184.4,265.2,209l82.5-22c30-22.6,292.1-217.3,464.8-242.3
			c70.3-10.2,128.9,15.8,165.1,73.2c49.4,78.3,45.5,198.8-9.1,280.4c-79.4,118.8-231.9,151.4-268,157.6
			c-13.8,22-63.1,88.4-159.8,96.4C2269.5,3327.2,2261.1,3327.5,2253,3327.5L2253,3327.5z M2085.8,3250c2.9,0,5.8,0.8,8.4,2.5
			c0.8,0.5,81.4,51.7,181.2,43.4c96.4-7.9,137.4-83.7,139.1-86.9c2.3-4.4,6.6-7.4,11.6-8.1c1.7-0.2,173.3-24.7,254-145.4
			c47.4-70.9,51.2-179.4,8.6-246.9c-20.8-32.9-60.9-69.9-134.7-59.2c-171.6,24.9-450.2,236-453,238.1c-1.6,1.2-3.4,2.1-5.4,2.6
			l-93.8,25c-5.3,1.4-10.9-0.1-14.8-4c-1.1-1.1-108.7-107.7-266.8-211.2c-93.6-61.3-219.3-70.9-286.2-21.9
			c-46.8,34.3-60.1,92.6-38.7,168.6c61.4,217.7,336.4,249.2,339.2,249.5c4.7,0.5,9,3.2,11.5,7.2c90.1,146.6,331.6,48.7,334.1,47.7
			C2081.9,3250.4,2083.9,3250,2085.8,3250L2085.8,3250z M2091.6,2975.3L2091.6,2975.3L2091.6,2975.3z"/>
		<path class="st2" d="M1732.8,3226.9c-5.6,0-11-3.1-13.7-8.4c-1.8-3.6-43.5-88.6,6.5-169.6c45.8-74.3,151.4-61.2,191.2-56.3
			c4.4,0.6,8.2,1,10.2,1.1c15.8,0.9,54.4-5.8,68-8.4c8.3-1.7,16.4,3.8,18,12.1c1.6,8.3-3.8,16.4-12.2,18
			c-5.4,1.1-53.2,10.2-75.6,8.9c-3-0.2-6.9-0.6-12.2-1.3c-34.4-4.2-125.8-15.6-161.2,41.9c-40.8,66.1-5.5,139-5.1,139.7
			c3.8,7.6,0.7,16.8-6.9,20.6C1737.4,3226.4,1735.1,3226.9,1732.8,3226.9L1732.8,3226.9z"/>
		<path class="st2" d="M2085.8,3280.7c-6.3,0-12.2-3.9-14.5-10.2c-2.9-8,1.2-16.8,9.2-19.7c0.6-0.2,49.4-18.2,98.9-58.5
			c-39.4-20.5-110.7-77.3-103.2-217.9c0.4-8.5,7.6-15,16.2-14.5c8.5,0.4,15,7.7,14.5,16.2c-8.8,166,100.3,195.5,104.9,196.7
			c5.4,1.4,9.8,5.6,11.1,11.1c1.4,5.4-0.2,11.2-4.3,15.1c-59.7,55.9-124.9,79.8-127.7,80.8
			C2089.3,3280.4,2087.6,3280.7,2085.8,3280.7L2085.8,3280.7z"/>
		<path class="st2" d="M2428.1,3231.5c-1.6,0-3.3-0.3-5-0.8c-8-2.7-12.3-11.4-9.6-19.4c1-3.2,8.5-29.3-13.1-49.5
			c-24.9,11.4-97.8,40.6-192.1,41.4h-0.1c-8.4,0-15.3-6.8-15.4-15.2c-0.1-8.5,6.7-15.4,15.2-15.5c107-0.9,186.4-41.9,187.2-42.3
			c5.1-2.7,11.2-2.3,15.9,1c39.7,27.6,37.9,71,31.4,90C2440.4,3227.5,2434.5,3231.5,2428.1,3231.5L2428.1,3231.5z"/>
		<path class="st2" d="M2396.8,3129.4c26.7-11.6,67.5-29.3,93.5-41.5c32.1-14.1,59.6-32.8,93.4-44.3c1.1-0.4,2.3,1,1.6,2
			c-19.9,30.7-52.4,47.5-82.3,66.3c-30.6,17.8-61.7,33.4-94.9,46.1C2389.3,3164.5,2378.5,3137.4,2396.8,3129.4L2396.8,3129.4
			L2396.8,3129.4z"/>
		<path class="st2" d="M1715.7,3155.4c-48.3-2.7-127.2-47.1-146.5-92.4c-1.7-8.1,36.6,16.1,39.3,18c25.3,16.1,52.8,29.3,81.7,37.6
			c9.4,2.8,19.1,4.9,28.8,6.3C1738,3128.3,1735,3156.1,1715.7,3155.4L1715.7,3155.4L1715.7,3155.4z"/>
	</g>
	<g>
		<path class="st0" d="M1430.2,1692.1c0,0-173.6-300.4,43.9-593.2c133.2-179.3,421.9-269.3,688.8-221.3
			c313.5,56.3,529.5,345.6,504.3,663.1c-20.8,262.4-134.6,554-276.7,718.5c0,0,148-388.8,131.8-600.4c0,0-140.6-255.7-125.6-424.1
			c0,0-24.7,59.1-112.9,79.8c0,0,18.1-40.1,18.1-78c0,0-64.4,57.8-149,82.3h-141.1c0,0,39.7-35.5,43.2-75.2
			c0,0-87.3,57.4-132.2,75.2h-224c0,0-59.4,1.4-86.8,58.5l-3.9,9.4c0,0-46.6-6.7-67.6,42.2c-11.5,29.1-15.2,46.3-15.2,46.3
			s-55.9,8.4-64.3,54s8.8,136.3,8.8,136.3S1440.6,1678.6,1430.2,1692.1L1430.2,1692.1z"/>
		<g>
			<g class="st4">
				<path class="st5" d="M2523.3,1679c6.2,215.2-132.8,580.2-132.8,580.2c13.1-15.2,26.1-31.5,38.7-48.8
					c42.3-126.2,113.7-366,102.1-516.3C2531.2,1694.1,2528.3,1688.7,2523.3,1679L2523.3,1679z"/>
			</g>
			<g class="st4">
				<path class="st5" d="M2283.8,1314.5c8.1-1.9,15.6-4.1,22.6-6.6c2.6-11.3,4.5-23.9,4.5-36.2c0,0-6,5.4-16.8,13.6
					C2289.2,1302.4,2283.8,1314.5,2283.8,1314.5L2283.8,1314.5z"/>
			</g>
			<g class="st4">
				<path class="st5" d="M2396.4,1285.5c2.6,38.8,11,80.1,22.3,120.5c-10.9-47.2-16.7-94.3-13-136
					C2405.6,1270,2403,1276.3,2396.4,1285.5L2396.4,1285.5z"/>
			</g>
			<g class="st4">
				<path class="st5" d="M2011.8,1318.7h37.8c7.1-11.8,13.2-25.6,14.5-39.9c0,0-15.4,10.2-36.7,23.2
					C2018.9,1312.3,2011.8,1318.7,2011.8,1318.7L2011.8,1318.7z"/>
			</g>
			<g class="st4">
				<path class="st5" d="M2654,1352.9c-53.1-237.3-241.1-430.4-491.1-475.3c-266.9-48-555.6,42-688.8,221.3
					c-137.7,185.4-118.6,373.8-86.1,487.2c-25.8-114.8-29.2-284.6,95.1-451.9c51.8-69.7,127.1-125.8,215.4-165.6
					c18.8,6.9,69.6,3.2,127.6-10.4c67.8-15.9,120.9-39.6,122.9-54.4c73.5-6.8,149-4.2,222.9,9.1
					C2409.4,955.5,2590.8,1131.9,2654,1352.9L2654,1352.9z"/>
			</g>
		</g>
		<g class="st1">
			<path class="st2" d="M1398.6,1619.4c0,0-26.5-228.6,16.7-326.5c0,0,64.4,23.8,126.1-42.3s91.9-92.6,148.2-119.9
				c0,0-48.6,72.3-26.6,112.8c22,40.6,236-1.8,339.7-47.6l103.8-45.8c0,0,16.8,41.4-9.7,96.1c0,0,56.4,20.3,169.3-49.4
				s120.8-69.7,120.8-69.7s3.1,45.8-12.8,70.1c0,0,28.2-0.9,53.3-18.5c0,0,7.1,48.9,36.1,81.6c29.1,32.6,125.6,4.4,125.6,4.4
				s51.6,99,46.3,297.3c-5.3,198.4-46.3,334.2-46.3,334.2s-43,114.7-91.8,206.2c-48.8,91.5-100.5,139.2-100.5,139.2
				s66.2-182.1,103.5-357.3c37.3-175.2,15.1-306.8,15.1-306.8l-7.8-25.4c0,0-41.4-89.1-66.1-164.9s-37.9-158.7-37.9-158.7
				l-24.2,31.6c0,0-43.7,37.7-95.7,54.3c0,0,35-20.7,49.7-61c14.7-40.3,4.8-56.8,4.8-56.8s-22.8,24.8-31.6,34.5
				c-8.8,9.7-35.7,29.1-35.7,29.1s-106.1,53.5-115,57.4c-8.9,3.9-34.7,0.9-36.5,0.9H2009c0,0,34.4-35.8,46-75.2
				c0,0-116.5,75.2-136.5,75.2s-201-3.5-232.2,3.6c-31.2,7.1-39.4,11.1-47.9,20.8s-16.8,18.6-16.8,18.6l-16.5,21.8l-21.8,3.2
				c0,0-27.2,9.1-38.2,33.8s-20.1,54.6-20.1,54.6s-62.9,0.6-66.1,68.2c-3.2,67.6,10.6,122.1,10.6,122.1s-37.7,29.9-39.4,26.7
				S1398.6,1619.4,1398.6,1619.4L1398.6,1619.4z"/>
		</g>
		<path class="st2" d="M2390.5,2274.6c-2.7,0-5.4-0.7-7.9-2.2c-6.4-3.8-9.1-11.7-6.5-18.7c1.5-3.8,145.1-384,131-590.5
			c-15-27.8-118-224.1-126.4-382.1c-19.1,18.2-48.8,37.9-93.4,48.4c-5.7,1.3-11.7-0.7-15.4-5.2c-3.7-4.5-4.6-10.8-2.1-16.1
			c0.1-0.2,7.2-16.1,12.1-36.6c-27.7,19.7-72.3,46.8-124.7,61.9c-1.4,0.4-2.8,0.6-4.3,0.6h-141.1c-6.4,0-12.1-3.9-14.4-9.9
			s-0.6-12.7,4.1-16.9c0.2-0.2,11.6-10.6,21.9-25.6c-29.5,18.1-68.8,40.9-95.1,51.4c-1.8,0.7-3.7,1.1-5.7,1.1h-224
			c-1.6,0.1-49.9,2.2-72.7,49.5l-3.8,9c-2.7,6.4-9.4,10.2-16.3,9.2c-3.5-0.4-35.7-3.3-51.3,33c-10.6,27-14.3,43.3-14.4,43.5
			c-1.4,6.2-6.4,10.9-12.7,11.9c-0.4,0.1-45.2,7.5-51.5,41.6c-7.8,42.2,8.6,129.8,8.8,130.7c1.3,7-2.3,13.9-8.7,16.9
			c-10.6,4.8-28.1,14.9-33.6,22.1c-3.1,4.1-8,6.3-13.2,5.9c-5.1-0.3-9.7-3.2-12.3-7.7c-1.8-3.2-45.1-79-61.5-192.3
			c-15.2-104.8-9.1-262.3,106.4-417.7c66-88.9,173.2-160.4,301.9-201.3c127-40.5,269.8-49.7,401.9-25.9
			c154.9,27.8,292.9,112.9,388.7,239.4c95.2,125.9,140.7,282.1,128.2,440c-21.1,265.3-133.8,557.6-280.4,727.4
			C2399.1,2272.7,2394.8,2274.6,2390.5,2274.6L2390.5,2274.6z M2396.6,1219.4c1.2,0,2.5,0.2,3.8,0.5c7.3,1.9,12.2,8.7,11.5,16.2
			c-14.4,161.8,122.4,412.8,123.8,415.3c1.1,1.9,1.7,4,1.9,6.2c11.6,150.5-56.7,384.1-99.7,513.4c112-168.1,196.7-413.2,214-631.5
			c24.9-313.9-186.4-591.9-491.6-646.7c-262.7-47.2-546,43.4-673.8,215.4c-87.4,117.7-121.3,250.2-100.8,393.8
			c11.1,77.7,36.1,137.8,49.3,165.6c6.1-4.3,12.4-8,17.6-10.7c-4.4-26.5-13.9-92.2-6.8-130.6c8-42.9,47.8-58.8,66.9-64.1
			c2.4-8.3,6.6-21.6,13.4-39c16.9-39.4,49.6-51,71.8-52.2c0.1-0.1,0.1-0.2,0.2-0.3c31.1-64.9,97.4-67.2,100.2-67.3h221.4
			c43.8-18.2,126-72.1,126.8-72.7c4.9-3.2,11.3-3.4,16.3-0.3s7.9,8.7,7.4,14.6c-2,22.3-13.4,43.1-24.6,58.5h104.9
			c79.3-23.5,140.3-77.8,140.9-78.3c4.5-4.1,11-5.1,16.5-2.6c5.5,2.5,9.1,8,9.1,14c0,19.3-4.2,38.9-8.7,54.3
			c56-22.1,73.1-60.2,73.9-62.1C2385,1223,2390.6,1219.4,2396.6,1219.4L2396.6,1219.4z"/>
		<path class="st2" d="M1576.7,1390c-10.4-50.7-4.9-105,16.9-152c9.4-21.3,23.5-41.4,43.9-53.5c1.1-0.7,2.4,0.5,1.9,1.7
			c-12.8,33.6-28.9,61.9-33.4,97.2c-5.3,33.1-4.6,67.6,0.8,100.6C1609.9,1403.6,1581.5,1409.4,1576.7,1390L1576.7,1390z"/>
		<path class="st2" d="M2290.5,1226.1c10.8-13.4,24.3-24.5,38.2-34.8c4.6-3.5,10-6.3,18.5-6.3c1,0,1.8,0.8,1.9,1.7
			c1.2,15.2-7.4,22.4-14.1,33.6c-6.6,9.5-13.6,18.6-21.9,26.5C2299.1,1259.8,2278.9,1241.1,2290.5,1226.1L2290.5,1226.1
			L2290.5,1226.1z"/>
		<path class="st2" d="M2506.9,1659.5c-3-44-7.6-96.3-12.4-140.1c-4.3-47.5-15.3-92.4-17.1-140.6c-0.1-1.3,1.8-1.9,2.4-0.7
			c12.7,21,20.5,44,26.4,67.2c14.5,58,24.3,117.2,29.1,176.8c1,11.9,1.9,23.8,2.2,36c0.3,8.5-6.4,15.6-14.9,15.8
			C2514.4,1674.2,2507.4,1667.8,2506.9,1659.5L2506.9,1659.5L2506.9,1659.5z"/>
	</g>
	<g>
		<g>
			<path class="st11" d="M1652.3,2703.6l-83.4-304.2c0,0,4.4-40.6,55.6-40.6s810.2,1.8,810.2,1.8s63.5,4.4,47.6,61.7
				c-15.9,57.3-82.9,276.9-82.9,276.9s-4.4,34.4-59.9,35.7h-642.3C1697.2,2734.9,1657.5,2722.3,1652.3,2703.6L1652.3,2703.6z"/>
			<path class="st11" d="M1697.2,2734.9c0,0-26.9,54.4,42.7,65.8c69.7,11.4,599.5,0,599.5,0s64.1,1,30.3-71"/>
		</g>
		<g class="st4">
			<path class="st5" d="M1602.9,2425.9c0,0,4.4-40.6,55.6-40.6s810.2,1.8,810.2,1.8s5.7,0.4,13.3,2.5c-10.6-26.4-47.3-29-47.3-29
				s-759.1-1.8-810.2-1.8s-55.6,40.6-55.6,40.6l83.4,304.2c3.4,12.5,22.2,22.2,34.3,27.3c-0.1-0.3-0.2-0.6-0.3-0.8L1602.9,2425.9
				L1602.9,2425.9z"/>
		</g>
		<g>
			<path class="st2" d="M1697.2,2750.2c-1.6,0-3.1-0.2-4.6-0.7c-11.2-3.5-48.3-17-55.1-41.9l0,0l-83.4-304.2
				c-0.5-1.9-0.7-3.8-0.5-5.7c2-18.8,19.5-54.3,70.8-54.3s802.7,1.8,810.3,1.8c0.3,0,0.7,0,1,0c3.8,0.3,37.3,3.2,54.7,27.9
				c7,9.9,13.9,27.1,6.6,53.2c-15.3,55.2-78.5,262.4-82.8,276.5c-1.9,8.8-13.3,45.8-74.5,47.3L1697.2,2750.2L1697.2,2750.2z
				 M1699.7,2719.5h639.8c39.5-1,44.4-20.5,44.8-22.7c0.1-0.9,0.2-1.3,0.5-2.1c0.7-2.2,67.1-220,82.8-276.5
				c3.2-11.7,2.6-20.6-2.1-27.1c-7.5-10.7-24.8-14.4-31.4-15.1c-25.6-0.1-759.7-1.8-809.6-1.8c-30.3,0-37.9,17.1-39.8,24.5
				l82.5,300.8C1668.5,2704.6,1684.3,2714.2,1699.7,2719.5L1699.7,2719.5z"/>
			<path class="st2" d="M1928.5,2821.1c-90.6,0-166.9-1.3-191.1-5.2c-27.4-4.5-45.9-15.7-55-33.3c-12.9-25.1-0.5-51.6,0.9-54.5
				c3.8-7.6,13-10.7,20.6-7c7.6,3.8,10.7,12.9,7,20.5c-2,4.3-6.2,17.4-1.2,27c5.5,10.4,20.7,14.9,32.5,16.9
				c67.5,11,591.5-0.1,596.7-0.2h0.6c0.1,0,16.3-0.2,22.1-9.3c4.7-7.4,2.6-21.6-5.9-39.8c-3.6-7.7-0.3-16.8,7.4-20.4
				c7.7-3.6,16.8-0.3,20.4,7.4c13.6,29,14.9,52.4,3.9,69.6c-14.5,22.5-43.3,23.5-48,23.3C2323.4,2816.4,2100.3,2821.1,1928.5,2821.1
				L1928.5,2821.1z"/>
		</g>
		<g class="st1">
			<path class="st2" d="M1646.2,2681.1c0,0,153.4,1.3,349.8,4.8s308.3-95.2,350.6-292.7h79.4c0,0,24.7,6.2,25.6,27.3
				c0.9,21.2-89.9,311.6-89.9,311.6l-22.1,2.7c0,0,25.4,31.8,0,65.8h-21.2l-553,5.1c0,0-59.9-13.6-65.7-24.7l-5.8-11.1l0,0
				c0,0,218,2.9,386.4-2.2c168.4-5.1,179-35.5,179-35.5h-533.5c0,0-33.6,6.4-51.4-7.2S1643.5,2697.2,1646.2,2681.1L1646.2,2681.1z"
				/>
		</g>
	</g>
	<g>
		<path class="st9" d="M2601.1,1861.4l12.7-59.5c0,0-15.9-75.2,5.9-108.2c21.8-32.9,36.6-60.9,36.6-60.9s81.6-186,127.4-194.8
			c45.9-8.8,27.6,70.5,13.5,109.3c0,0,46.4,9.4,44.7,52.3c0,0,39.4,0,40.6,52.9c0,0,45.3,21.8,40,64.7s-54.7,48.8-54.7,48.8
			s8.8,72.3-68.8,130.5l-1.2,34.7C2797.8,1931.2,2652.5,1920.9,2601.1,1861.4L2601.1,1861.4z"/>
		<path class="st2" d="M2797.8,1946.6c-0.4,0-0.7,0-1.1,0c-6.2-0.4-152.3-11.5-207.2-75.1c-3.1-3.7-4.4-8.6-3.4-13.3l12.1-56.4
			c-3.2-16.9-13.8-82.3,8.8-116.5c19.5-29.6,33.5-55.3,35.6-59.1c20.2-46,88.7-193.6,138.4-203.2c20.3-3.9,31.6,5.2,36.5,11
			c20.1,23.6,8.3,75-0.6,103.8c16.9,7.8,35.7,23.2,39.8,48.9c17.2,5.5,37.2,21.2,40.8,56.7c15.2,9.7,45.4,34.6,40.4,75.7
			c-4.4,35.2-32.6,52.6-54.4,59.2c-1.1,25.2-10.9,79.2-69.2,125.9l-0.9,27.5c-0.1,4.2-2,8.1-5.1,10.9
			C2805.3,1945.2,2801.6,1946.6,2797.8,1946.6L2797.8,1946.6z M2617.8,1856.7c40.1,38.9,128.9,53.2,165.2,57.5l0.6-18.2
			c0.2-4.7,2.4-9,6.1-11.8c69.7-52.2,62.8-115.7,62.7-116.3c-0.5-4.1,0.6-8.1,3.2-11.3s6.2-5.3,10.3-5.8c1.5-0.2,37.5-5.2,41.2-35.4
			c3.9-31.2-30-48.2-31.4-48.9c-5.1-2.5-8.5-7.8-8.6-13.5c-0.8-35.2-21.3-37.7-25.4-37.9c-4.2,0-8.1-1.7-11-4.7s-4.3-7.1-4.1-11.3
			c1.2-29.5-31-36.3-32.4-36.6c-4.4-0.9-8.2-3.7-10.4-7.6c-2.2-3.9-2.6-8.6-1-12.8c15.4-42.5,18.2-79.9,11.1-88.2
			c-1-1.2-3.5-1.5-7.3-0.8c-23.4,4.5-78.6,100-116.2,185.9c-0.1,0.3-0.3,0.7-0.5,1c-0.6,1.2-15.4,29-37.3,62.2
			c-14.9,22.5-7.4,78.6-3.7,96.5c0.4,2.1,0.4,4.3,0,6.4L2617.8,1856.7L2617.8,1856.7z"/>
		<path class="st2" d="M2605.9,1687.9c41-40.7,100-96.7,158.9-105.7c24.1-3.1,42.2,13.3,39.5,37.8c-2,23.4-15.2,43.8-28.6,61.2
			c-8.8,11.3-18.2,21.5-28.9,31.2l-0.2-13.9c5,5.2,8.6,10.3,12.3,15.8c10.4,16.2,17.7,35.2,17.2,54.6c0,1.3-2,1.8-2.5,0.5
			c-8.3-21.8-22.6-41.5-39.9-56.7c-4.2-3.7-4.2-10.2-0.2-13.9c18.6-21.9,48.1-56.2,44.2-86.1c-0.5-1.5-0.9-2-1.3-2.1
			c-2.1-0.9-5.4-1-8.6-0.4c-30.1,6.4-56.6,27-80.8,46c-20.6,16.4-40.3,35-59.1,53.3C2613.5,1723.3,2592.3,1702.8,2605.9,1687.9
			L2605.9,1687.9L2605.9,1687.9z"/>
		<path class="st2" d="M2780.8,1608c-1.7,0-3.5-0.3-5.2-0.9c-8-2.9-12.1-11.7-9.2-19.7l16.5-45.3c2.9-8,11.7-12.1,19.7-9.2
			c8,2.9,12.1,11.7,9.2,19.7l-16.5,45.3C2792.9,1604.2,2787,1608,2780.8,1608L2780.8,1608z"/>
		<path class="st2" d="M2867.8,1781.4c-1.1,0-2.2-0.1-3.4-0.4c-21.2-4.7-32.8-24.9-38-37.2c-13.1-4-22.2-14.3-27.9-24.9
			c-20.4,5.7-41.7-3.9-52.2-11.6c-6.8-5-8.3-14.7-3.2-21.5c5-6.8,14.6-8.3,21.4-3.3c0.6,0.4,20,13.9,31.9,3.3
			c4.1-3.7,9.8-4.8,15-3.1c5.2,1.7,9.1,6,10.3,11.4c0,0.1,5.2,20.5,16.4,20.8c6.7,0.2,12.6,4.7,14.4,11.2c2.1,7.3,9.4,23,18.5,25
			c8.3,1.8,13.5,10.1,11.7,18.3C2881.2,1776.6,2874.8,1781.5,2867.8,1781.4L2867.8,1781.4z"/>
		<path class="st2" d="M2837.8,1745.6c-6.5,0-12.5-4.1-14.6-10.6c-2.6-8,1.7-16.6,9.6-19.3c1.7-0.6,34.3-13.1,34.3-63
			c0-8.5,6.9-15.4,15.4-15.4s15.4,6.9,15.4,15.4c0,73.2-53,91.4-55.2,92.2C2841,1745.3,2839.4,1745.6,2837.8,1745.6L2837.8,1745.6z"
			/>
		<g class="st1">
			<path class="st2" d="M2656.1,1896.6c0,0,85.8,3.1,124.6-34.3s32.6-88.5,10.7-109.7c-21.9-21.2-38-31.8-39.5-33.8
				s-11.8-13.3-11.8-13.3s34.1-37.6,40.6-60.5s20.1,12.3,43.5,3.5c0,0,6.4,26.4,26.4,35.8l20,9.4c0,0-6.5,44.1,43.5,39.4
				c0,0-6.3,19.2-22.3,25.2s-23.9,12.8-23.9,12.8s-7.8,62.2-30.3,87s-38.8,38.3-38.8,38.3l-0.9,37.1
				C2798.1,1933.7,2675.4,1918.8,2656.1,1896.6L2656.1,1896.6z"/>
		</g>
		<g class="st1">
			<path class="st2" d="M2744.7,1602.1c3.1-1.2,58.4-142.9,64.1-141.2s-5.3,68.4-17.3,102.3c-12,33.9-21.9,32.7-21.9,32.7
				L2744.7,1602.1L2744.7,1602.1z"/>
		</g>
		<path class="st2" d="M2806.7,1712.7c-3.4,0-6.9-1.1-9.7-3.5c-6.6-5.4-7.6-15-2.2-21.6c0.4-0.6,28.6-36.2,31.8-88.8
			c0.5-8.5,8-14.9,16.3-14.4c8.5,0.5,14.9,7.8,14.4,16.3c-3.8,63-37.2,104.6-38.6,106.4C2815.6,1710.7,2811.1,1712.7,2806.7,1712.7
			L2806.7,1712.7z"/>
	</g>
	<g>
		<g class="st13">
			<path class="st14" d="M1431.8,1124.8l11.7-327.4c0,0-269.8-30-407.3,150.8c0,0-7.1,291.8,30,378.2
				c37,86.4,192.2,135.2,236.3,126.7l-21.2-281.8C1281.3,1171.2,1336.7,1140,1431.8,1124.8L1431.8,1124.8z"/>
		</g>
		<g class="st13">
			<path class="st14" d="M1655.1,693.4c0,0-33.5-243.3,0-340.3c0,0,375.1-128.7,741.2,61.7l-5.9,380.8
				C2390.5,795.5,2036,666.3,1655.1,693.4L1655.1,693.4z"/>
		</g>
		<path class="st15" d="M1290.7,1469.4c-61.9,0-201.3-49.8-238.7-136.9c-37.9-88.5-31.5-372.6-31.2-384.7c0.1-3.2,1.2-6.4,3.1-8.9
			c141.2-185.5,409.9-158,421.3-156.7c8,0.9,13.9,7.8,13.7,15.8l-11.7,327.4c-0.3,7.3-5.7,13.5-12.9,14.6
			c-70.1,11.2-118.3,31.5-136.9,40.4l20.4,271.6c0.6,7.8-4.8,14.8-12.4,16.2C1301.2,1469,1296.3,1469.4,1290.7,1469.4L1290.7,1469.4
			z M1051.5,953.5c-0.7,38.8-3.9,290.5,28.8,366.8c30.8,72,154.7,115.8,205.7,118.3l-20-266.2c-0.4-5.9,2.6-11.6,7.8-14.5
			c2.3-1.3,54-30.1,143.2-46.1l10.7-300.1C1371.8,808.9,1165.1,809.1,1051.5,953.5L1051.5,953.5z M1431.8,1124.8L1431.8,1124.8
			L1431.8,1124.8z"/>
		<path class="st15" d="M1088,1375.7c-0.4,0-0.9,0-1.4-0.1c-8.5-0.7-14.7-8.2-14-16.7c11.9-136.8,195.9-199.7,203.8-202.3
			c8.1-2.7,16.7,1.7,19.4,9.7c2.7,8.1-1.7,16.8-9.7,19.4c-1.7,0.6-172.7,59.2-182.9,175.9C1102.6,1369.7,1095.9,1375.7,1088,1375.7
			L1088,1375.7z"/>
		<path class="st15" d="M2390.5,810.9c-1.8,0-3.6-0.3-5.3-0.9c-3.5-1.3-355.9-127.7-729-101.3c-8.1,0.6-15.2-5.2-16.3-13.2
			c-1.4-10.1-33.6-248.1,0.7-347.4c1.5-4.5,5.1-8,9.5-9.5c3.9-1.3,97.4-33,237.4-41.4c129.2-7.8,323.7,4,515.9,104
			c5.2,2.7,8.4,8.1,8.3,13.9l-5.9,380.8c-0.1,5-2.6,9.6-6.6,12.4C2396.6,810,2393.6,810.9,2390.5,810.9L2390.5,810.9z M1761.1,674.3
			c286.7,0,542.1,76.2,614.3,99.9l5.4-350.1c-325.6-164.9-660.4-74.8-713.5-58.8c-24,82.9-5,260.4,1.2,311.8
			C1699.6,675.2,1730.6,674.3,1761.1,674.3L1761.1,674.3z"/>
		<g class="st13">
			<path class="st14" d="M2669.2,1211.2l75.5-377.9c0,0,356.4,2.3,553.9,268c0,0-117.6,437.1-117.6,430.2
				S2909.6,1316.4,2669.2,1211.2L2669.2,1211.2z"/>
		</g>
		<path class="st15" d="M3181.5,1546.9c-0.8,0-1.6-0.1-2.5-0.2c-4.7-0.6-8.7-3.4-11.1-7.2c-22.6-23.3-282.2-216.8-505-314.3
			c-6.6-2.9-10.3-10-8.9-17.1l75.5-377.9c1.4-7.2,7.7-12.4,15.1-12.4h0.1c3.7,0,92.6,1,207.2,35c106.1,31.5,254.4,98.6,359,239.2
			c2.8,3.8,3.7,8.6,2.5,13.2c0,0-28.9,107.6-58.1,215.2c-14.6,53.8-29.2,107.6-40.3,148c-5.6,20.2-10.2,37.1-13.6,48.8
			c-1.7,6-3.1,10.7-4,13.9C3195.9,1536,3192.6,1546.9,3181.5,1546.9L3181.5,1546.9z M3168.6,1540.3L3168.6,1540.3L3168.6,1540.3z
			 M3165.7,1531.5L3165.7,1531.5L3165.7,1531.5L3165.7,1531.5L3165.7,1531.5z M3165.7,1531.5L3165.7,1531.5L3165.7,1531.5z
			 M2686.6,1202.1c124.7,56,251.6,135.6,337.2,193.3c58.1,39.2,100.3,70.4,120.3,85.6c12.5,9.4,21.9,16.8,29.2,22.6
			c18.4-65.5,71.1-260,108.5-399.1c-170.5-223.1-460.8-251.8-524.6-255.4L2686.6,1202.1L2686.6,1202.1z"/>
		<path class="st16" d="M1756.2,468.9c-0.2,0-0.4,0-0.6,0c-8.5-0.3-15.1-7.5-14.8-16c2.7-69.3,7.5-72.3,14.3-76.5
			c14.2-8.8,25,6,33.8,17.9c3.8,5.2,7.9,11.1,11.8,16.8c2.1-5.8,4.5-12.8,7.5-21c2.9-8,11.6-12.2,19.7-9.3c8,2.9,12.2,11.7,9.3,19.6
			c-7.2,20-15.1,42.8-16.4,47.4c-1,5.7-5.1,10.4-10.7,12.1c-11.3,3.4-15.2-2.4-26.8-19.8c-2.5-3.7-6.1-9.2-10-14.9
			c-0.7,9.2-1.2,19.4-1.6,28.7C1771.3,462.4,1764.5,468.9,1756.2,468.9L1756.2,468.9z M1821,445.3L1821,445.3L1821,445.3z
			 M1821,445.3L1821,445.3L1821,445.3z"/>
		<path class="st16" d="M1900.7,468.9c-0.3,0-0.7,0-1,0c-30-2-33.9-3.9-36.3-5.1c-3.2-1.6-7.3-5-8.9-12c-1.8-8,0.2-58.2,8.6-68.7
			c3-3.7,7.4-9.3,46.3-14c8.4-1,16.1,5,17.1,13.4c1,8.4-5,16.1-13.4,17.1c-9.4,1.1-19.6,2.9-25.3,4.4c-1.5,8.1-2.9,23-3.3,32.8
			c5.2,0.5,11.6,1.1,17.2,1.4c8.5,0.5,14.9,7.9,14.3,16.3C1915.5,462.7,1908.7,468.9,1900.7,468.9L1900.7,468.9z M1875.3,435.5
			L1875.3,435.5z M1883.7,405.2L1883.7,405.2z"/>
		<path class="st16" d="M1885.7,436.8c-7.8,0-14.6-6-15.3-14c-0.8-8.5,5.4-15.9,13.9-16.7l13.7-1.3c8.4-0.8,15.9,5.4,16.7,13.9
			c0.8,8.5-5.4,15.9-13.9,16.7l-13.7,1.3C1886.6,436.8,1886.2,436.8,1885.7,436.8L1885.7,436.8z"/>
		<path class="st16" d="M2029.4,459.1c-2.2,0-3.9-0.4-5.3-0.7c-9-2.1-15.9-8.8-21.1-16.5c-6.1,6.1-13,10.7-20.3,11.4
			c-6.9,0.6-13.5-2-18.2-7.3c-12-13.6-12.5-49.6-11.8-69.8c0.3-8.5,7.4-15.1,15.9-14.8c8.5,0.3,15.1,7.4,14.8,15.9
			c-0.5,13.5,0.3,28.2,1.7,38.1c2.6-3.4,5.4-7.4,7.6-11.1c3.1-5.3,9.1-8.2,15.1-7.5c6.1,0.7,11.2,5,12.9,10.9
			c1.9,6.3,5.3,13.5,8.2,17.7c6.1-7.2,15.8-23.1,23.2-38.8c3.6-7.7,12.8-11,20.4-7.4s11,12.8,7.4,20.5
			C2055.3,451.9,2038.6,459.1,2029.4,459.1L2029.4,459.1z M1987.9,426.2L1987.9,426.2L1987.9,426.2z"/>
		<path class="st16" d="M2109.6,482.6c-7.8,0-14.4-5.9-15.3-13.8c-0.9-8.4,5.2-16,13.7-16.9l0,0c0,0,12.6-1.7,17.4-11.4
			c0.1-0.2,0.1-0.3,0.2-0.4c-1-1.8-4.6-5.1-7-7.4c-5.2-4.9-11.7-11.1-15.5-19.4c-3.1-6.8-3-14.2,0.3-20.8
			c7.8-15.5,31.7-22.2,41.7-24.4c8.4-1.8,16.5,3.5,18.3,11.7c1.8,8.3-3.4,16.5-11.7,18.3c-6.4,1.4-13.6,4.1-17.9,6.4
			c1.7,1.9,3.8,4,5.9,5.9c8.3,7.9,23.8,22.5,13.1,43.9c-9.9,19.9-30.9,27.1-41.7,28.2C2110.7,482.5,2110.2,482.6,2109.6,482.6z
			 M2125.8,439.7L2125.8,439.7z"/>
		<path class="st5" d="M1072.1,1018.5c-3.8,0-7.2-2.9-7.6-6.8l-6.5-56.4c-0.3-2.9,1-5.7,3.4-7.3l18.8-12.3c3.5-2.3,8.3-1.3,10.6,2.2
			c2.3,3.5,1.3,8.3-2.2,10.6l-14.8,9.8l5.9,51.7c0.5,4.2-2.5,8-6.8,8.5C1072.6,1018.4,1072.4,1018.5,1072.1,1018.5L1072.1,1018.5z"
			/>
		<path class="st5" d="M1070.3,984.1c-2.7,0-5.3-1.4-6.7-4c-2-3.7-0.7-8.4,3-10.4l17.7-9.7c3.7-2,8.4-0.7,10.4,3s0.7,8.4-3,10.4
			l-17.7,9.7C1072.8,983.8,1071.6,984.1,1070.3,984.1L1070.3,984.1z"/>
		<path class="st5" d="M1094.4,1001.7c-0.2,0-0.5,0-0.7,0c-4.2-0.4-7.3-4.1-7-8.3l4-43.6c0.3-3.2,2.6-5.9,5.7-6.7
			c3.1-0.8,6.4,0.4,8.3,3l22,31.3c2.4,3.5,1.6,8.3-1.9,10.7c-3.5,2.4-8.3,1.6-10.7-1.9l-10-14.2l-2.1,22.8
			C1101.7,998.7,1098.3,1001.7,1094.4,1001.7L1094.4,1001.7z"/>
		<path class="st5" d="M1101,984.1c-2.7,0-5.2-1.4-6.7-3.8c-2.1-3.7-0.9-8.4,2.8-10.5l8.4-4.8c3.7-2.1,8.4-0.9,10.5,2.8
			c2.1,3.7,0.9,8.4-2.8,10.5l-8.4,4.8C1103.6,983.7,1102.3,984.1,1101,984.1L1101,984.1z"/>
		<path class="st5" d="M1134.5,972.2l-7.1-13.7c0,0,0.6-0.5-0.1-2.5c-0.3-0.9-1.8-1.7-4.1-2.9c-3.9-2-11-5.7-10.5-14.8
			c0.6-10.3,10.6-15.3,19.7-15.6c4.2-0.2,7.8,3.2,8,7.4c0.2,4.2-3.1,7.8-7.3,8c-1.3,0.1-2.8,0.4-3.9,0.8c0.4,0.2,0.8,0.4,1.1,0.6
			c3.8,2,9.5,4.9,11.8,12C1145.7,962.9,1138.7,970,1134.5,972.2L1134.5,972.2z"/>
		<path class="st5" d="M1160.1,963.8c-3.3,0-6.3-2.1-7.3-5.3l-11.5-35.9c-1.3-4,0.9-8.4,5-9.7c4-1.3,8.4,0.9,9.7,5l11.5,35.9
			c1.3,4-0.9,8.4-5,9.7C1161.6,963.7,1160.8,963.8,1160.1,963.8L1160.1,963.8z"/>
		<path class="st5" d="M1155.7,945.8c-3,0-5.9-1.8-7.1-4.8c-1.6-3.9,0.3-8.4,4.2-10l17-6.9c3.9-1.6,8.4,0.3,10,4.2
			c1.6,3.9-0.3,8.4-4.2,10l-17,6.9C1157.6,945.6,1156.6,945.8,1155.7,945.8L1155.7,945.8z"/>
		<path class="st5" d="M1179.9,955.5c-3.2,0-6.2-2-7.3-5.3l-12.8-38.9c-1.3-4,0.9-8.4,4.9-9.7c4-1.3,8.4,0.9,9.7,4.9l12.8,38.9
			c1.3,4-0.9,8.4-4.9,9.7C1181.5,955.4,1180.7,955.5,1179.9,955.5L1179.9,955.5z"/>
		<path class="st5" d="M1203.3,938c-3.3,0-6.3-2.1-7.3-5.4l-10.6-34.2c-1.2-4,1-8.4,5.1-9.6c4.1-1.3,8.3,1,9.6,5.1l10.6,34.2
			c1.2,4-1,8.4-5.1,9.6C1204.8,937.9,1204,938,1203.3,938L1203.3,938z"/>
		<path class="st5" d="M1240.2,922.3c-13.3,0-24.1-10.8-24.1-24.1s10.8-24.1,24.1-24.1s24.1,10.8,24.1,24.1
			S1253.5,922.3,1240.2,922.3z M1240.2,889.5c-4.8,0-8.7,3.9-8.7,8.7s3.9,8.7,8.7,8.7s8.7-3.9,8.7-8.7S1245,889.5,1240.2,889.5z"/>
		<path class="st5" d="M1280.9,905.9c-0.3,0-0.6,0-0.9,0c-3.7-0.4-6.5-3.4-6.8-7c-0.3-1.2-1.2-4.4-2-7.1
			c-5.7-19.1-6.8-24.9-4.4-29.2c1-1.8,3-3.4,5-4c5.1-1.5,8.8,1.5,19.7,10.3c3.6,2.9,9.9,8,14.6,11.2c-0.4-6.5-2.1-17.2-4.6-27.2
			c-1-4.1,1.5-8.3,5.6-9.3c4.1-1,8.3,1.5,9.3,5.6c5.9,24,6.6,39.1,2.1,45c-1.9,2.5-4.6,3.9-7.6,4c-6.6,0.2-14.4-5.5-26.2-14.9
			c0.5,1.6,0.9,3.1,1.2,4.2c2.3,7.9,2.8,9.6,2.6,11.7C1288.1,903.1,1284.7,905.9,1280.9,905.9L1280.9,905.9z M1273.2,897.4
			L1273.2,897.4L1273.2,897.4z M1273.2,897.3L1273.2,897.3L1273.2,897.3z M1311.1,882.8L1311.1,882.8z M1271.7,873.2L1271.7,873.2z"
			/>
		<path class="st17" d="M1081.2,1124c-3.9,0-7.2-2.9-7.6-6.9l-6.2-58.5c-0.3-2.8,0.9-5.5,3.2-7.1l15.9-11.2
			c3.5-2.4,8.3-1.6,10.7,1.9s1.6,8.3-1.9,10.7l-12.2,8.6l5.7,54c0.4,4.2-2.6,8-6.8,8.4C1081.7,1123.9,1081.4,1124,1081.2,1124
			L1081.2,1124z"/>
		<path class="st17" d="M1077.2,1086.1c-2.7,0-5.4-1.4-6.8-4c-2-3.7-0.7-8.4,3.1-10.4l12.5-6.8c3.7-2,8.4-0.7,10.4,3.1
			s0.7,8.4-3.1,10.4l-12.5,6.8C1079.7,1085.8,1078.4,1086.1,1077.2,1086.1L1077.2,1086.1z"/>
		<path class="st17" d="M1116.6,1095.5c-0.8,0-1.5-0.1-2.3-0.2c-5.1-0.7-9.4-3.2-12.5-7.4c-8-11.1-4.8-30.5-4.1-34.2
			c0.8-4.2,4.8-6.9,9-6.1c4.2,0.8,6.9,4.8,6.1,9l0,0c-1.2,6.5-1.6,18.1,1.5,22.4c0.6,0.8,1.1,1.1,2,1.2c0.4,0.1,0.6,0,0.6,0
			c1.9-1.5,3-12,1.4-22c-0.7-4.2,2.2-8.1,6.4-8.8c4.2-0.7,8.1,2.2,8.8,6.4c0.7,4.2,3.6,25.7-5.6,35.2
			C1124.9,1093.9,1120.9,1095.5,1116.6,1095.5L1116.6,1095.5z"/>
		<path class="st17" d="M1148.6,1081.3c-3.8,0-7.1-2.8-7.6-6.7l-5.2-39.4c-0.4-3.4,1.4-6.6,4.5-8c3.1-1.4,6.8-0.6,9,2
			c5.4,6.2,11.7,13.1,16.8,18.1c-0.4-6.7-1.4-15.5-2.6-23.2c-0.6-4.2,2.3-8.1,6.5-8.7c4.2-0.6,8.1,2.3,8.7,6.5
			c6,40.2,1.8,43.2-1.6,45.6c-3.6,2.6-7.3,5.2-22.8-10.2l2,15.2c0.6,4.2-2.4,8.1-6.6,8.6C1149.3,1081.3,1148.9,1081.3,1148.6,1081.3
			L1148.6,1081.3z"/>
		<path class="st18" d="M2842.8,1016.9c-8.5,0-15.4-6.9-15.4-15.4v-26.3l-13.2,16.5c-3.6,4.5-9.4,6.6-15.1,5.5
			c-5.6-1.2-10.2-5.4-11.7-11l-7.5-27l-14.1,36.4c-3.1,7.9-12,11.9-19.9,8.8c-7.9-3.1-11.9-12-8.8-19.9l30.9-79.8
			c2.4-6.2,8.4-10.1,15.1-9.8c6.6,0.3,12.3,4.9,14.1,11.3L2809,949l21.8-27.2c4.1-5.1,10.9-7.1,17.1-4.9c6.2,2.2,10.3,8,10.3,14.5
			v70.1C2858.1,1010,2851.2,1016.9,2842.8,1016.9L2842.8,1016.9z"/>
		<path class="st18" d="M2900.3,1053.9c-24.1,0-42.9-24.9-42.9-56.7s18.9-56.7,42.9-56.7s42.9,24.9,42.9,56.7
			S2924.4,1053.9,2900.3,1053.9z M2900.3,971.2c-4.3,0-12.2,9.9-12.2,26s7.9,26,12.2,26s12.2-9.9,12.2-26S2904.6,971.2,2900.3,971.2
			z"/>
		<path class="st18" d="M2969.7,1067.6c-1,0-1.9-0.1-2.9-0.3c-6.2-1.2-11-6-12.2-12.1c-6.1-31.1-13.3-65.8-15.2-72.8
			c-0.9-1.9-1.4-4.1-1.4-6.4c0-8.5,6.9-15.4,15.4-15.4c12.8,0,15,10,18.1,24c1.6,7.2,3.6,16.8,5.6,26.5c0.1,0.3,0.1,0.7,0.2,1
			l12.1-18.8c4.6-7.1,14.1-9.2,21.2-4.6s9.2,14.1,4.6,21.2l-32.6,50.7C2979.8,1065,2974.9,1067.6,2969.7,1067.6L2969.7,1067.6z
			 M2953.4,991.3L2953.4,991.3L2953.4,991.3z M2947.5,990.1c1.7,0.7,3.7,1.2,5.9,1.2C2951.3,991.3,2949.3,990.9,2947.5,990.1z"/>
		<path class="st18" d="M3027.5,1097.6c-1.5,0-3.1-0.2-4.6-0.7c-8.1-2.6-12.6-11.2-10-19.3l24.2-76.7c2.6-8.1,11.2-12.6,19.3-10
			c8.1,2.6,12.6,11.2,10,19.3l-24.2,76.7C3040.1,1093.4,3034,1097.6,3027.5,1097.6L3027.5,1097.6z"/>
		<path class="st18" d="M3102.8,1137.7c-2.3,0-4.6-0.5-6.8-1.6l-34.8-17.2c-6.6-3.2-9.9-10.7-8.1-17.7l20.7-77.6
			c1.1-4,3.7-7.4,7.3-9.4c3.6-2,7.9-2.5,11.8-1.4l38.4,11c8.2,2.3,12.9,10.9,10.5,19c-2.4,8.2-10.9,12.9-19,10.5l-23.3-6.7
			l-13.4,50.3l23.5,11.6c7.6,3.8,10.7,13,7,20.6C3114,1134.5,3108.5,1137.7,3102.8,1137.7L3102.8,1137.7z"/>
		<path class="st18" d="M3113.9,1092.7c-2,0-4.1-0.4-6.1-1.3l-28.6-12.3c-7.8-3.4-11.4-12.4-8-20.2c3.4-7.8,12.4-11.4,20.2-8
			l28.6,12.3c7.8,3.4,11.4,12.4,8,20.2C3125.5,1089.2,3119.8,1092.7,3113.9,1092.7z"/>
		<path class="st18" d="M2787.6,1211c-7.4,0-22.8-6.5-75.2-28.7c-7.1-3-10.8-10.7-8.8-18.2l24.2-89.9c1.1-4.1,3.9-7.6,7.7-9.6
			c3.8-2,8.2-2.3,12.2-0.9c46.8,16.4,71.1,27.4,73,33c1.6,4.8,1.7,5-8.8,55.1c-7.3,34.9-13,53.7-17.1,56.4
			C2792.4,1209.9,2790.7,1211,2787.6,1211L2787.6,1211z M2736.8,1159.2c14.4,6,28.6,11.9,38.8,16c4-18.2,10.2-47.9,13.4-64.1
			c-8.7-3.2-21.9-8-35.7-12.9L2736.8,1159.2L2736.8,1159.2z"/>
		<path class="st15" d="M2975,1319.3c-3,0-6-0.9-8.6-2.6c-0.9-0.6-91.8-61.4-135.7-82.7c-12-5.8-9.5-16.4-5-35.6
			c2.3-9.5,5.6-22.7,9.9-39.1c7.3-27.8,15.1-55.8,15.2-56.1c2.1-7.5,9.5-12.3,17.2-11.1c4.1,0.6,100.3,16.3,152.1,67.7
			c3.9,3.8,5.4,9.5,4.1,14.8l-34.4,133.1c-1.2,4.8-4.8,8.8-9.4,10.5C2978.7,1319,2976.9,1319.3,2975,1319.3L2975,1319.3z
			 M2854.3,1211.5c34.4,18.1,84.6,50.3,111.2,67.7l26.7-103.4c-35-30.1-90.2-45.1-115.5-50.7
			C2867.2,1159.8,2858,1195.1,2854.3,1211.5L2854.3,1211.5z M2844.2,1206.3L2844.2,1206.3
			C2844.2,1206.3,2844.2,1206.3,2844.2,1206.3C2844.2,1206.4,2844.2,1206.3,2844.2,1206.3z"/>
		<path class="st15" d="M2981.8,1293.1c-3.5,0-7-1.2-9.9-3.7c-23.4-19.8-106.5-64.7-136.6-80.3c-7.5-3.9-10.5-13.2-6.6-20.7
			c3.9-7.5,13.2-10.5,20.7-6.6c4.5,2.4,111.5,58,142.3,84.2c6.5,5.5,7.3,15.2,1.8,21.7C2990.4,1291.3,2986.1,1293.1,2981.8,1293.1
			L2981.8,1293.1z"/>
		<path class="st19" d="M2884.2,1195.2c-6.2,0-11.6-4.5-12.6-10.8l-4.9-31c-1.1-7,3.7-13.5,10.7-14.6c7-1.1,13.5,3.7,14.6,10.7
			l4.9,31c1.1,7-3.7,13.5-10.7,14.6C2885.5,1195.1,2884.8,1195.2,2884.2,1195.2L2884.2,1195.2z"/>
		<path class="st19" d="M2912.1,1204.3c-1.1,0-2.2-0.1-3.3-0.4c-6.8-1.8-10.9-8.8-9.1-15.7l7.9-29.5c1.8-6.8,8.9-10.9,15.7-9.1
			c6.8,1.8,10.9,8.8,9.1,15.7l-7.9,29.5C2922.9,1200.5,2917.7,1204.3,2912.1,1204.3L2912.1,1204.3z"/>
		<path class="st19" d="M2936.2,1216.7c-3,0-6-1.1-8.5-3.2c-5.3-4.7-5.8-12.8-1.1-18.1l19-21.5c4.7-5.3,12.8-5.8,18.1-1.1
			c5.3,4.7,5.8,12.8,1.1,18.1l-19,21.5C2943.3,1215.2,2939.8,1216.7,2936.2,1216.7L2936.2,1216.7z"/>
		<path class="st19" d="M2971.1,1234.3H2949c-7.1,0-12.8-5.7-12.8-12.8s5.7-12.8,12.8-12.8h22.1c7.1,0,12.8,5.7,12.8,12.8
			S2978.1,1234.3,2971.1,1234.3z"/>
		<path class="st20" d="M3149.6,1429.9c-2.9,0-5.8-0.8-8.3-2.4c-3.3-2.1-81.7-52.4-111.1-72.6c-5.6-3.8-8-10.8-6-17.2l40.1-130.1
			c1.3-4.1,4.2-7.5,8-9.3c3.9-1.9,8.3-2,12.3-0.5c3,1.2,74.4,29.5,119.9,75.3c4.1,4.1,5.5,10.2,3.6,15.7l-44,130.5
			c-1.5,4.5-5,8-9.5,9.6C3153,1429.6,3151.3,1429.9,3149.6,1429.9L3149.6,1429.9z M3057,1335.9c23.5,15.7,62.3,40.9,84.4,55.1
			l34.6-102.6c-28.5-26-66.5-45.6-87.3-55.2L3057,1335.9L3057,1335.9z"/>
		<path class="st20" d="M3068.9,1245c0,0,36.1,81.4,41,81c4.9-0.4,27.3-21.6,31.3-17.2s22,54.2,22,54.2l-16.1,50
			c0,0-102.1-66.6-105.2-68.7C3038.9,1342.3,3068.9,1245,3068.9,1245z"/>
	</g>
</g>
</svg>
